<svg width="1920" height="1080" viewBox="0 0 1920 1080" fill="none" xmlns="http://www.w3.org/2000/svg">
<g clip-path="url(#clip0_51_49)">
<g opacity="0.6">
<path d="M348 828.254C348 916.759 277.261 988.507 190 988.507C102.739 988.507 32 916.759 32 828.254C32 739.748 102.739 668 190 668C277.261 668 348 739.748 348 828.254Z" fill="#FFBF69"/>
<circle cx="1023.5" cy="831" r="27" fill="#FFBF69"/>
<circle cx="1230" cy="327" r="40" fill="#FFBF69"/>
<circle cx="523.5" cy="311" r="16" fill="#FFBF69"/>
<circle cx="1575" cy="130.5" r="179.5" fill="#FFBF69"/>
<path d="M1862.75 858.5C1862.75 930.573 1804.55 989 1732.75 989C1660.95 989 1602.75 930.573 1602.75 858.5C1602.75 786.427 1660.95 728 1732.75 728C1804.55 728 1862.75 786.427 1862.75 858.5Z" fill="#2EC4B6"/>
<circle cx="1863" cy="869" r="79" fill="#2EC4B6"/>
<path d="M1647 891C1647 920.823 1622.82 945 1593 945C1563.18 945 1539 920.823 1539 891C1539 861.177 1563.18 837 1593 837C1622.82 837 1647 861.177 1647 891Z" fill="#2EC4B6"/>
<circle cx="1406" cy="600.5" r="10.5" fill="#2EC4B6"/>
<circle cx="513" cy="844.5" r="10.5" fill="#2EC4B6"/>
<path d="M1855 584C1855 593.389 1847.39 601 1838 601C1828.61 601 1821 593.389 1821 584C1821 574.611 1828.61 567 1838 567C1847.39 567 1855 574.611 1855 584Z" fill="#FFBF69"/>
<circle cx="844.5" cy="988.5" r="10.5" fill="#FFBF69"/>
<circle cx="285" cy="167.5" r="63.5" fill="#2EC4B6" fill-opacity="0.6"/>
<circle cx="926" cy="201" r="34" fill="#2EC4B6"/>
</g>
</g>
<defs>
<clipPath id="clip0_51_49">
<rect width="1920" height="1080" fill="white"/>
</clipPath>
</defs>
</svg>
