<svg width="1920" height="1080" viewBox="0 0 1920 1080" fill="none" xmlns="http://www.w3.org/2000/svg">
<g clip-path="url(#clip0_164_365)">
<circle cx="15" cy="15" r="15" transform="matrix(-1 0 0 1 329 354)" fill="#CBF3F0"/>
<circle cx="141" cy="141" r="141" transform="matrix(-1 0 0 1 1955 -164)" fill="#FFBF69"/>
<circle cx="141" cy="141" r="141" transform="matrix(-1 0 0 1 548 699)" fill="#FFBF69"/>
<circle cx="94.5" cy="94.5" r="94.5" transform="matrix(-1 0 0 1 455 593)" fill="#FFBF69"/>
<circle cx="78.5" cy="78.5" r="78.5" transform="matrix(-1 0 0 1 626 767)" fill="#FFBF69"/>
<circle cx="58.5" cy="58.5" r="58.5" transform="matrix(-1 0 0 1 216 76)" fill="#FFBF69"/>
<circle cx="15" cy="15" r="15" transform="matrix(-1 0 0 1 1731 261)" fill="#CBF3F0"/>
<circle cx="141" cy="141" r="141" transform="matrix(-1 0 0 1 1469 233)" fill="#CBF3F0"/>
<circle cx="141" cy="141" r="141" transform="matrix(-1 0 0 1 1296 179)" fill="#CBF3F0"/>
<circle cx="141" cy="141" r="141" transform="matrix(-1 0 0 1 1328 355)" fill="#CBF3F0"/>
<circle cx="231" cy="231" r="231" transform="matrix(-1 0 0 1 2045 813)" fill="#CBF3F0"/>
<circle cx="24" cy="24" r="24" transform="matrix(-1 0 0 1 1731 534)" fill="#FFBF69"/>
<circle cx="15" cy="15" r="15" transform="matrix(-1 0 0 1 1420 203)" fill="#FFBF69"/>
<circle cx="15" cy="15" r="15" transform="matrix(-1 0 0 1 871 149)" fill="#CBF3F0"/>
<circle cx="15" cy="15" r="15" transform="matrix(-1 0 0 1 1202 951)" fill="#FFBF69"/>
<circle cx="15" cy="15" r="15" transform="matrix(-1 0 0 1 77 966)" fill="#FFBF69"/>
<circle cx="11" cy="11" r="11" transform="matrix(-1 0 0 1 940 841)" fill="#FFBF69"/>
<circle cx="15" cy="15" r="15" transform="matrix(-1 0 0 1 158 722)" fill="#CBF3F0"/>
</g>
<defs>
<clipPath id="clip0_164_365">
<rect width="1920" height="1080" fill="white" transform="matrix(-1 0 0 1 1920 0)"/>
</clipPath>
</defs>
</svg>
