<?xml version="1.0" encoding="UTF-8"?>
<svg version="1.1" xmlns="http://www.w3.org/2000/svg" width="512" height="512">
<path d="M0 0 C2.98896953 2.70430577 5.84139245 5.45883971 8.625 8.375 C10.171875 7.199375 10.171875 7.199375 11.75 6 C18.61258335 1.18391268 25.35915714 0.45531144 33.625 1.375 C37.35034268 3.17114736 39.08342796 4.56688244 41.37109375 7.98046875 C43.44414099 10.64872603 43.44414099 10.64872603 46.69140625 10.9765625 C47.84511719 10.98429688 48.99882812 10.99203125 50.1875 11 C59.30074451 11.36945586 67.54758327 12.23304779 74.3203125 18.84375 C77.48244069 22.55499028 78.08299257 26.24049711 77.9375 31.078125 C76.32275501 42.94650066 68.84721086 53.2063777 61.625 62.375 C62.615 63.035 63.605 63.695 64.625 64.375 C80.87511737 75.36454722 89.35498539 91.72027486 93.3046875 110.62890625 C93.78535205 113.20671683 94.2302013 115.78283487 94.625 118.375 C95.181875 118.32859375 95.73875 118.2821875 96.3125 118.234375 C102.3351657 117.94951919 106.65006566 118.88579266 111.625 122.375 C116.19836427 127.18289578 117.03866876 131.28400947 116.97265625 137.734375 C116.26711269 143.09333505 113.39118685 146.85411688 109.375 150.3125 C104.20669706 152.30934432 98.97321849 152.9758273 93.625 151.375 C92.739804 154.34672943 92.39326109 155.84480947 93.65625 158.734375 C94.1409375 159.52328125 94.625625 160.3121875 95.125 161.125 C97.87328873 166.19642782 98.12731105 169.84267996 96.625 175.375 C96.295 176.035 95.965 176.695 95.625 177.375 C96.33373417 179.50485898 96.33373417 179.50485898 97.4375 181.875 C98.98221359 185.50560234 99.96651417 188.79022008 100.5625 192.6875 C101.39277163 197.37052334 103.02394591 199.19267313 106.625 202.375 C113.86276459 212.11732829 115.94527091 221.28747114 114.625 233.375 C109.73086044 250.56359642 90.40006375 263.10410275 75.63720703 271.50634766 C62.37847479 278.72022445 48.39602496 284.18580143 33.625 287.375 C34.615 292.325 34.615 292.325 35.625 297.375 C40.7621222 297.40008172 45.89920726 297.41803674 51.03637695 297.42993164 C52.77694318 297.43490057 54.51750537 297.44167801 56.25805664 297.45043945 C66.0276727 297.49831592 75.66099732 297.29720751 85.40551758 296.5637207 C89.6463298 296.31513135 93.72143444 296.45693451 97.9375 296.9375 C98.72455322 297.02555908 99.51160645 297.11361816 100.32250977 297.2043457 C118.90673693 299.62386806 135.98210829 307.89935373 149.359375 321.06640625 C153.50900938 323.99993964 156.08171273 323.97654943 161 323.6875 C161.73605469 323.66494141 162.47210938 323.64238281 163.23046875 323.61914062 C165.02953842 323.56072927 166.82754753 323.47106337 168.625 323.375 C168.58834229 323.94831055 168.55168457 324.52162109 168.51391602 325.11230469 C167.83200666 337.40886912 167.54649848 346.42113205 175.625 356.375 C175.1196875 357.13425781 174.614375 357.89351563 174.09375 358.67578125 C173.4440625 359.66964844 172.794375 360.66351563 172.125 361.6875 C171.4753125 362.67363281 170.825625 363.65976562 170.15625 364.67578125 C168.3782873 367.29267639 168.3782873 367.29267639 168.625 370.375 C170.41077046 372.37819381 172.18804305 374.21834566 174.125 376.0625 C174.91197266 376.82916992 174.91197266 376.82916992 175.71484375 377.61132812 C177.01160904 378.87272708 178.31746117 380.12477212 179.625 381.375 C181.77311659 379.22688341 181.10287193 374.46399165 181.2734375 371.48071289 C181.33049866 370.54743668 181.38755981 369.61416046 181.4463501 368.65260315 C181.57007929 366.61905736 181.69164496 364.58537908 181.81134033 362.55159187 C182.00061483 359.33721479 182.1955776 356.12322867 182.39208984 352.9092865 C182.80825036 346.08566634 183.2170334 339.26161426 183.625 332.4375 C184.09761164 324.53649166 184.57319265 316.63568286 185.05596924 308.73528862 C185.24841588 305.56128307 185.43557961 302.38699342 185.62255859 299.21266174 C185.74030711 297.274653 185.85829529 295.3366588 185.9765625 293.39868164 C186.02750061 292.50977234 186.07843872 291.62086304 186.13092041 290.70501709 C186.5111714 284.60265721 186.5111714 284.60265721 187.625 282.375 C186.92375 282.21 186.2225 282.045 185.5 281.875 C180.3018634 279.16292873 177.3844954 274.56213795 175.48828125 269.1015625 C171.37801751 251.35861403 177.16444342 233.06839832 185.625 217.375 C187.5625 217.6875 187.5625 217.6875 189.625 218.375 C190.56637255 221.19911765 190.74225382 222.90418032 190.72265625 225.82421875 C190.71943359 226.67177734 190.71621094 227.51933594 190.71289062 228.39257812 C190.70451172 229.27365234 190.69613281 230.15472656 190.6875 231.0625 C190.68298828 231.95517578 190.67847656 232.84785156 190.67382812 233.76757812 C190.66204983 235.97011987 190.64560164 238.17252599 190.625 240.375 C190.94138428 239.85180176 191.25776855 239.32860352 191.58374023 238.78955078 C197.57545485 228.93882084 203.35353481 219.50025242 211.625 211.375 C212.285 211.705 212.945 212.035 213.625 212.375 C213.10150497 218.9948928 211.77774936 224.69265553 209.5625 230.9375 C209.28083984 231.75541016 208.99917969 232.57332031 208.70898438 233.41601562 C208.02264559 235.40523483 207.3250155 237.3905524 206.625 239.375 C206.955 239.705 207.285 240.035 207.625 240.375 C208.19347656 239.66214844 208.76195312 238.94929687 209.34765625 238.21484375 C220.08042328 224.90191236 220.08042328 224.90191236 223.625 222.375 C224.945 222.375 226.265 222.375 227.625 222.375 C227.16663153 233.83421178 220.82660943 244.38606862 215.625 254.375 C216.2540625 253.78332031 216.883125 253.19164062 217.53125 252.58203125 C230.75387439 240.375 230.75387439 240.375 236.625 240.375 C235.46175778 252.89148631 224.41505794 264.72549304 215.625 273.375 C213.71488854 274.76753287 211.77974654 276.12692201 209.8125 277.4375 C207.45442076 279.08195473 207.45442076 279.08195473 205.625 281.375 C205.27278543 284.24202505 205.27278543 284.24202505 205.75878906 287.35913086 C205.88862183 288.51621552 206.01845459 289.67330017 206.15222168 290.865448 C206.30823853 292.02360016 206.46425537 293.18175232 206.625 294.375 C206.75104614 295.38386261 206.87709229 296.39272522 207.00695801 297.43215942 C207.40625862 300.48204319 207.84642187 303.52367477 208.296875 306.56640625 C208.63290462 308.89498276 208.96866862 311.22359762 209.30419922 313.55224609 C209.47916931 314.75709656 209.6541394 315.96194702 209.83441162 317.20330811 C222.46953549 404.48224156 222.46953549 404.48224156 221.625 440.375 C222.53894531 440.3028125 223.45289063 440.230625 224.39453125 440.15625 C238.23967302 439.1931097 251.61551761 439.375 265.625 439.375 C265.625 462.805 265.625 486.235 265.625 510.375 C105.245 510.375 -55.135 510.375 -220.375 510.375 C-220.375 489.915 -220.375 469.455 -220.375 448.375 C-211.465 447.715 -202.555 447.055 -193.375 446.375 C-187.88873298 440.67389305 -187.88873298 440.67389305 -184.33789062 434.26220703 C-182.77129904 431.19178285 -180.71038686 428.6983673 -178.5625 426 C-177.73001139 424.92874068 -176.89798986 423.85711824 -176.06640625 422.78515625 C-168.37292973 413.0010299 -160.48133559 403.38713383 -152.33251953 393.97875977 C-149.60720513 390.83156859 -146.95278441 387.64423718 -144.375 384.375 C-145.7447164 380.37999382 -147.63222422 377.57490508 -150.375 374.375 C-147.51789838 368.21605924 -142.91167852 363.62704185 -137.765625 359.28125 C-137.1272168 358.73009521 -136.48880859 358.17894043 -135.83105469 357.61108398 C-134.54490442 356.5106646 -133.23835122 355.43357872 -131.91113281 354.38305664 C-128.42582832 351.42823868 -128.42582832 351.42823868 -127.16015625 347.20654297 C-127.40961926 344.87079702 -127.8459649 342.66257771 -128.375 340.375 C-128.5746032 339.02256435 -128.76340043 337.66845463 -128.9375 336.3125 C-129.1540625 334.8584375 -129.1540625 334.8584375 -129.375 333.375 C-128.46790283 333.35312622 -128.46790283 333.35312622 -127.54248047 333.33081055 C-124.77770735 333.25590812 -122.01408643 333.15938927 -119.25 333.0625 C-118.29867187 333.03994141 -117.34734375 333.01738281 -116.3671875 332.99414062 C-107.90500108 332.67093212 -102.83101175 329.77560208 -95.875 325.125 C-71.4156771 309.19164687 -45.46306062 305.2239339 -17 302.125 C-16.18673248 302.03596405 -15.37346497 301.9469281 -14.53555298 301.85519409 C-12.18314955 301.60051498 -9.830105 301.35328365 -7.4765625 301.109375 C-6.77831863 301.03459427 -6.08007477 300.95981354 -5.360672 300.88276672 C-0.66897861 300.4111818 3.91736409 300.31315265 8.625 300.375 C8.295 299.4675 7.965 298.56 7.625 297.625 C6.625 294.375 6.625 294.375 6.625 290.375 C5.96580566 290.38877686 5.30661133 290.40255371 4.62744141 290.41674805 C-12.40841373 290.6160241 -29.32635664 288.10926167 -45.375 282.375 C-46.02259277 282.14941406 -46.67018555 281.92382812 -47.33740234 281.69140625 C-64.43724287 275.64561994 -83.49327529 264.99665108 -91.6875 247.9375 C-95.55554969 238.38875809 -93.99110126 231.08102281 -90.08618164 221.82275391 C-88.87266509 218.99605754 -87.62947333 216.1837579 -86.375 213.375 C-86.99375 213.106875 -87.6125 212.83875 -88.25 212.5625 C-90.375 211.375 -90.375 211.375 -92.375 208.375 C-93.09082792 203.66169147 -92.60845529 199.46176663 -90.8125 195.0625 C-89.36734542 191.35536435 -89.18060204 190.84376054 -90.375 187.375 C-90.705 186.715 -91.035 186.055 -91.375 185.375 C-91.79984112 180.34606679 -91.73285972 175.9433532 -89.375 171.375 C-90.385625 171.87 -91.39625 172.365 -92.4375 172.875 C-97.60237386 175.05734107 -101.65955889 174.93695485 -107 173.1875 C-112.12267218 170.43643531 -115.13322119 167.58335627 -117.3125 162.1875 C-118.84524426 156.93237683 -118.27666373 152.46627243 -116.375 147.375 C-114.30782255 143.63402589 -112.06621509 141.66191947 -108.0625 140 C-107.175625 139.79375 -106.28875 139.5875 -105.375 139.375 C-105.478125 138.158125 -105.58125 136.94125 -105.6875 135.6875 C-105.61236212 123.70300874 -98.71249958 114.25164958 -91.375 105.375 C-90.81683594 104.68792969 -90.25867188 104.00085938 -89.68359375 103.29296875 C-88.59813261 101.97247899 -87.49039837 100.67030134 -86.375 99.375 C-87.16003906 98.9625 -87.94507813 98.55 -88.75390625 98.125 C-97.24145794 93.45945011 -105.23163433 87.99000088 -108.375 78.375 C-109.21939823 70.92318565 -108.84653232 64.5813074 -104.375 58.375 C-102.86328125 56.66015625 -102.86328125 56.66015625 -101.375 55.375 C-100.715 55.375 -100.055 55.375 -99.375 55.375 C-99.4575 54.281875 -99.54 53.18875 -99.625 52.0625 C-99.57376593 42.3963382 -94.86192092 34.24685908 -88.375 27.375 C-83.79258179 23.19990785 -80.30045565 22.988698 -74.3515625 23.234375 C-73.37316406 23.30398437 -73.37316406 23.30398437 -72.375 23.375 C-72.33375 22.570625 -72.2925 21.76625 -72.25 20.9375 C-70.22818375 12.70581957 -64.23539114 6.14687129 -57.375 1.375 C-52.10891669 -1.18965096 -47.1273712 -1.17485901 -41.375 -0.625 C-37.13669939 0.91620022 -34.27584663 2.91629825 -31.375 6.375 C-31.375 7.035 -31.375 7.695 -31.375 8.375 C-30.01955078 7.41787109 -30.01955078 7.41787109 -28.63671875 6.44140625 C-27.4454474 5.6065783 -26.2540337 4.77195346 -25.0625 3.9375 C-24.17014648 3.30618164 -24.17014648 3.30618164 -23.25976562 2.66210938 C-16.26406563 -2.22315598 -7.95085773 -3.82819076 0 0 Z M90.625 162.375 C88.99628889 165.82232623 88.99628889 165.82232623 88.8125 169.5625 C89.59536438 171.73971811 89.59536438 171.73971811 92.625 173.375 C93.93689416 172.27701339 93.93689416 172.27701339 93.875 169.5625 C93.60326344 166.09785889 92.93809135 164.88084896 90.625 162.375 Z M87.625 174.375 C88.625 176.375 88.625 176.375 88.625 176.375 Z M-87.375 176.375 C-87.375 179.015 -87.375 181.655 -87.375 184.375 C-86.055 184.375 -84.735 184.375 -83.375 184.375 C-81.98608072 181.37568835 -81.98608072 181.37568835 -83.6875 178.6875 C-84.244375 177.924375 -84.80125 177.16125 -85.375 176.375 C-86.035 176.375 -86.695 176.375 -87.375 176.375 Z M88.625 180.375 C89.08199278 185.40192063 91.61741748 188.52396261 94.625 192.375 C95.74877697 189.07064916 95.52054742 187.3243138 94.1875 184.125 C93.75630859 183.06539062 93.75630859 183.06539062 93.31640625 181.984375 C93.08824219 181.45328125 92.86007812 180.9221875 92.625 180.375 C91.305 180.375 89.985 180.375 88.625 180.375 Z M-84.375 191.375 C-87.66314795 196.89439121 -89.1410569 200.91823472 -88.375 207.375 C-87.1643443 209.42504839 -87.1643443 209.42504839 -85.375 210.375 C-84.715 210.375 -84.055 210.375 -83.375 210.375 C-79.29660412 205.80225311 -78.2413036 202.73919365 -78.3125 196.6875 C-78.32152344 195.69363281 -78.33054688 194.69976562 -78.33984375 193.67578125 C-78.35144531 192.91652344 -78.36304688 192.15726563 -78.375 191.375 C-80.355 191.375 -82.335 191.375 -84.375 191.375 Z M204.625 242.375 C205.625 244.375 205.625 244.375 205.625 244.375 Z M-117.375 416.375 C-117.8596875 416.87128906 -118.344375 417.36757813 -118.84375 417.87890625 C-123.51113636 422.60912281 -128.33973464 427.04298399 -133.375 431.375 C-135.04537408 432.82908539 -136.71204661 434.28743379 -138.375 435.75 C-139.138125 436.41773438 -139.90125 437.08546875 -140.6875 437.7734375 C-141.244375 438.30195313 -141.80125 438.83046875 -142.375 439.375 C-142.375 439.705 -142.375 440.035 -142.375 440.375 C-134.58188938 440.51352709 -126.94389283 440.11133492 -119.1875 439.375 C-118.14013672 439.27960938 -117.09277344 439.18421875 -116.01367188 439.0859375 C-113.46700731 438.85336539 -110.92084685 438.61633075 -108.375 438.375 C-109.449635 428.84468436 -110.49956506 423.15249427 -117.375 416.375 Z M161.625 424.375 C161.295 429.985 160.965 435.595 160.625 441.375 C168.215 441.375 175.805 441.375 183.625 441.375 C183.625 440.385 183.625 439.395 183.625 438.375 C182.0045109 436.86627217 182.0045109 436.86627217 179.828125 435.52734375 C179.0340625 435.00462891 178.24 434.48191406 177.421875 433.94335938 C176.58140625 433.40517578 175.7409375 432.86699219 174.875 432.3125 C174.05 431.77044922 173.225 431.22839844 172.375 430.66992188 C168.83936226 428.36320338 165.40948987 426.26724494 161.625 424.375 Z " fill="#9CD0C2" transform="translate(226.375,1.625)"/>
<path d="M0 0 C2.98896953 2.70430577 5.84139245 5.45883971 8.625 8.375 C10.171875 7.199375 10.171875 7.199375 11.75 6 C18.61258335 1.18391268 25.35915714 0.45531144 33.625 1.375 C37.35034268 3.17114736 39.08342796 4.56688244 41.37109375 7.98046875 C43.44414099 10.64872603 43.44414099 10.64872603 46.69140625 10.9765625 C47.84511719 10.98429688 48.99882812 10.99203125 50.1875 11 C59.30074451 11.36945586 67.54758327 12.23304779 74.3203125 18.84375 C77.48244069 22.55499028 78.08299257 26.24049711 77.9375 31.078125 C76.32275501 42.94650066 68.84721086 53.2063777 61.625 62.375 C62.615 63.035 63.605 63.695 64.625 64.375 C80.87511737 75.36454722 89.35498539 91.72027486 93.3046875 110.62890625 C93.78535205 113.20671683 94.2302013 115.78283487 94.625 118.375 C95.181875 118.32859375 95.73875 118.2821875 96.3125 118.234375 C102.3351657 117.94951919 106.65006566 118.88579266 111.625 122.375 C116.19836427 127.18289578 117.03866876 131.28400947 116.97265625 137.734375 C116.26711269 143.09333505 113.39118685 146.85411688 109.375 150.3125 C104.20669706 152.30934432 98.97321849 152.9758273 93.625 151.375 C92.739804 154.34672943 92.39326109 155.84480947 93.65625 158.734375 C94.1409375 159.52328125 94.625625 160.3121875 95.125 161.125 C97.87328873 166.19642782 98.12731105 169.84267996 96.625 175.375 C96.295 176.035 95.965 176.695 95.625 177.375 C96.33373417 179.50485898 96.33373417 179.50485898 97.4375 181.875 C98.98221359 185.50560234 99.96651417 188.79022008 100.5625 192.6875 C101.39277163 197.37052334 103.02394591 199.19267313 106.625 202.375 C113.86276459 212.11732829 115.94527091 221.28747114 114.625 233.375 C109.73086044 250.56359642 90.40006375 263.10410275 75.63720703 271.50634766 C62.37847479 278.72022445 48.39602496 284.18580143 33.625 287.375 C34.615 292.325 34.615 292.325 35.625 297.375 C46.845 297.705 58.065 298.035 69.625 298.375 C67.37405696 309.6297152 67.37405696 309.6297152 65.71484375 313.47265625 C65.18987305 314.70338867 65.18987305 314.70338867 64.65429688 315.95898438 C64.29400391 316.77689453 63.93371094 317.59480469 63.5625 318.4375 C63.19833984 319.29021484 62.83417969 320.14292969 62.45898438 321.02148438 C59.7922247 327.2077753 59.7922247 327.2077753 58.625 328.375 C56.71083594 328.53532387 54.79087444 328.62683168 52.87109375 328.69140625 C51.6385083 328.73378418 50.40592285 328.77616211 49.13598633 328.81982422 C47.77818585 328.86001717 46.42035569 328.89921773 45.0625 328.9375 C44.38126068 328.95701721 43.70002136 328.97653442 42.99813843 328.99664307 C38.62994335 329.11879738 34.26149316 329.22352658 29.8927002 329.32171631 C27.62327208 329.3750406 25.35415436 329.43607525 23.08496094 329.49853516 C19.40774758 329.59697007 15.73095351 329.66668019 12.05276489 329.71603394 C10.64706219 329.73860614 9.24146989 329.76974159 7.83615112 329.80960083 C5.86653596 329.863255 3.89605522 329.88161034 1.92578125 329.8984375 C0.80341064 329.91825684 -0.31895996 329.93807617 -1.4753418 329.95849609 C-4.375 329.375 -4.375 329.375 -6.65307617 327.05322266 C-8.66283261 323.9273148 -10.38627255 320.7167011 -12 317.375 C-12.2990625 316.77171875 -12.598125 316.1684375 -12.90625 315.546875 C-17.375 306.45118916 -17.375 306.45118916 -17.375 302.375 C-14.54224047 302.03603732 -11.70895339 301.70370306 -8.875 301.375 C-7.68777344 301.23191406 -7.68777344 301.23191406 -6.4765625 301.0859375 C-1.40470596 300.50392118 3.51993859 300.28132915 8.625 300.375 C8.295 299.4675 7.965 298.56 7.625 297.625 C6.625 294.375 6.625 294.375 6.625 290.375 C5.96580566 290.38877686 5.30661133 290.40255371 4.62744141 290.41674805 C-12.40841373 290.6160241 -29.32635664 288.10926167 -45.375 282.375 C-46.02259277 282.14941406 -46.67018555 281.92382812 -47.33740234 281.69140625 C-64.43724287 275.64561994 -83.49327529 264.99665108 -91.6875 247.9375 C-95.55554969 238.38875809 -93.99110126 231.08102281 -90.08618164 221.82275391 C-88.87266509 218.99605754 -87.62947333 216.1837579 -86.375 213.375 C-87.303125 212.9728125 -87.303125 212.9728125 -88.25 212.5625 C-90.375 211.375 -90.375 211.375 -92.375 208.375 C-93.09082792 203.66169147 -92.60845529 199.46176663 -90.8125 195.0625 C-89.36734542 191.35536435 -89.18060204 190.84376054 -90.375 187.375 C-90.87 186.385 -90.87 186.385 -91.375 185.375 C-91.79984112 180.34606679 -91.73285972 175.9433532 -89.375 171.375 C-90.385625 171.87 -91.39625 172.365 -92.4375 172.875 C-97.60237386 175.05734107 -101.65955889 174.93695485 -107 173.1875 C-112.12267218 170.43643531 -115.13322119 167.58335627 -117.3125 162.1875 C-118.84524426 156.93237683 -118.27666373 152.46627243 -116.375 147.375 C-114.30782255 143.63402589 -112.06621509 141.66191947 -108.0625 140 C-107.175625 139.79375 -106.28875 139.5875 -105.375 139.375 C-105.478125 138.158125 -105.58125 136.94125 -105.6875 135.6875 C-105.61236212 123.70300874 -98.71249958 114.25164958 -91.375 105.375 C-90.81683594 104.68792969 -90.25867188 104.00085938 -89.68359375 103.29296875 C-88.59813261 101.97247899 -87.49039837 100.67030134 -86.375 99.375 C-87.16003906 98.9625 -87.94507813 98.55 -88.75390625 98.125 C-97.24145794 93.45945011 -105.23163433 87.99000088 -108.375 78.375 C-109.21939823 70.92318565 -108.84653232 64.5813074 -104.375 58.375 C-102.86328125 56.66015625 -102.86328125 56.66015625 -101.375 55.375 C-100.715 55.375 -100.055 55.375 -99.375 55.375 C-99.4575 54.281875 -99.54 53.18875 -99.625 52.0625 C-99.57376593 42.3963382 -94.86192092 34.24685908 -88.375 27.375 C-83.79258179 23.19990785 -80.30045565 22.988698 -74.3515625 23.234375 C-73.37316406 23.30398437 -73.37316406 23.30398437 -72.375 23.375 C-72.33375 22.570625 -72.2925 21.76625 -72.25 20.9375 C-70.22818375 12.70581957 -64.23539114 6.14687129 -57.375 1.375 C-52.10891669 -1.18965096 -47.1273712 -1.17485901 -41.375 -0.625 C-37.13669939 0.91620022 -34.27584663 2.91629825 -31.375 6.375 C-31.375 7.035 -31.375 7.695 -31.375 8.375 C-30.47136719 7.73691406 -29.56773437 7.09882813 -28.63671875 6.44140625 C-27.4454474 5.6065783 -26.2540337 4.77195346 -25.0625 3.9375 C-24.46759766 3.51662109 -23.87269531 3.09574219 -23.25976562 2.66210938 C-16.26406563 -2.22315598 -7.95085773 -3.82819076 0 0 Z M90.625 162.375 C88.99628889 165.82232623 88.99628889 165.82232623 88.8125 169.5625 C89.59536438 171.73971811 89.59536438 171.73971811 92.625 173.375 C93.93689416 172.27701339 93.93689416 172.27701339 93.875 169.5625 C93.60326344 166.09785889 92.93809135 164.88084896 90.625 162.375 Z M87.625 174.375 C88.625 176.375 88.625 176.375 88.625 176.375 Z M-87.375 176.375 C-87.375 179.015 -87.375 181.655 -87.375 184.375 C-86.055 184.375 -84.735 184.375 -83.375 184.375 C-81.98608072 181.37568835 -81.98608072 181.37568835 -83.6875 178.6875 C-84.244375 177.924375 -84.80125 177.16125 -85.375 176.375 C-86.035 176.375 -86.695 176.375 -87.375 176.375 Z M88.625 180.375 C89.08199278 185.40192063 91.61741748 188.52396261 94.625 192.375 C95.74877697 189.07064916 95.52054742 187.3243138 94.1875 184.125 C93.75630859 183.06539062 93.75630859 183.06539062 93.31640625 181.984375 C93.08824219 181.45328125 92.86007812 180.9221875 92.625 180.375 C91.305 180.375 89.985 180.375 88.625 180.375 Z M-84.375 191.375 C-87.66314795 196.89439121 -89.1410569 200.91823472 -88.375 207.375 C-87.1643443 209.42504839 -87.1643443 209.42504839 -85.375 210.375 C-84.715 210.375 -84.055 210.375 -83.375 210.375 C-79.29660412 205.80225311 -78.2413036 202.73919365 -78.3125 196.6875 C-78.32152344 195.69363281 -78.33054687 194.69976562 -78.33984375 193.67578125 C-78.35144531 192.91652344 -78.36304688 192.15726563 -78.375 191.375 C-80.355 191.375 -82.335 191.375 -84.375 191.375 Z " fill="#E75369" transform="translate(226.375,1.625)"/>
<path d="M0 0 C0 23.43 0 46.86 0 71 C-160.38 71 -320.76 71 -486 71 C-486 50.54 -486 30.08 -486 9 C-479.31132219 8.39193838 -472.97055685 7.85435424 -466.3125 7.9375 C-465.59900391 7.94201172 -464.88550781 7.94652344 -464.15039062 7.95117188 C-462.43355526 7.96269426 -460.71676457 7.9806137 -459 8 C-460.859375 13.7421875 -460.859375 13.7421875 -462.125 16.0625 C-463.2140074 18.47387354 -463.14531509 20.38432839 -463 23 C-458.43798017 25.55187984 -454.11515938 26.79295929 -449 27.625 C-448.33355469 27.74617188 -447.66710937 27.86734375 -446.98046875 27.9921875 C-435.3548477 29.97652356 -423.49136802 30.15501739 -411.7265625 30.31640625 C-410.43680511 30.33718735 -409.14704773 30.35796844 -407.81820679 30.37937927 C-404.44169606 30.43374008 -401.06513393 30.48351646 -397.6885376 30.53222656 C-394.22200113 30.58308291 -390.75553638 30.63842898 -387.2890625 30.69335938 C-380.52610415 30.79988369 -373.76308058 30.90154869 -367 31 C-365.1582605 36.64800112 -364.45224761 42.08507728 -364 48 C-363.3563298 47.97716446 -362.71265961 47.95432892 -362.04948425 47.93080139 C-353.76229254 47.63742495 -345.47495294 47.34839928 -337.1875 47.0625 C-336.51986885 47.03945423 -335.8522377 47.01640846 -335.16437531 46.99266434 C-316.34279594 46.34411503 -297.52208323 45.77983514 -278.69332886 45.38064575 C-268.1206895 45.15604899 -257.56196431 44.85543572 -246.99731445 44.37475586 C-233.91372448 43.81635659 -220.81618913 43.63248395 -207.72363281 43.39257812 C-197.6027946 43.20090126 -187.49311005 42.92089741 -177.37890625 42.50390625 C-163.04785216 41.91787101 -148.71550945 41.66698562 -134.375 41.4375 C-131.7955686 41.39413593 -129.21614148 41.35051724 -126.63671875 41.30664062 C-120.42452501 41.20150853 -114.21228709 41.09945529 -108 41 C-108.01160156 40.1445459 -108.02320313 39.2890918 -108.03515625 38.40771484 C-108.09884132 30.08885245 -107.73501686 21.90883872 -107 13.625 C-106.90460938 12.49578125 -106.80921875 11.3665625 -106.7109375 10.203125 C-106.47916913 7.46825829 -106.24216018 4.73396264 -106 2 C-89.45059879 0.37266643 -77.09343102 -0.33711744 -63 9 C-57.4624897 12.09511032 -53.26285754 12.57683395 -47 13 C-46.34 9.04 -45.68 5.08 -45 1 C-29.94753367 -0.10187989 -15.1564771 0 0 0 Z " fill="#DA7B2E" transform="translate(492,441)"/>
<path d="M0 0 C0.68368652 0.29398682 1.36737305 0.58797363 2.07177734 0.89086914 C4.61558398 2.38916184 5.61414718 4.29116905 6.41162109 7.07763672 C6.58516113 7.92471191 6.75870117 8.77178711 6.9375 9.64453125 C7.23563599 11.0975061 7.23563599 11.0975061 7.53979492 12.57983398 C7.74580322 13.63501221 7.95181152 14.69019043 8.1640625 15.77734375 C8.38102783 16.88215088 8.59799316 17.98695801 8.8215332 19.12524414 C26.10634919 109.65059128 26.10634919 109.65059128 9.7890625 140.90234375 C7.18237641 144.73845194 4.44550937 146.97130957 -0.0234375 148.27734375 C-5.26822907 149.25382126 -10.86887934 150.13192429 -15.7109375 147.58984375 C-18.49591446 144.45674467 -18.34413621 141.21582407 -18.5234375 137.21484375 C-19.08009961 130.23969878 -20.51476683 125.39630162 -25.7109375 120.58984375 C-37.17469369 115.06267559 -51.55172553 113.76305027 -63.8984375 117.15234375 C-69.82726996 119.32658452 -74.52597201 121.97312638 -77.52734375 127.7890625 C-79.5697182 134.10291723 -78.2367668 141.17314876 -77.4453125 147.6328125 C-77.18173758 150.18509633 -77.03517623 152.71239569 -76.9609375 155.27734375 C-76.93515625 156.08945313 -76.909375 156.9015625 -76.8828125 157.73828125 C-77.2109375 159.90234375 -77.2109375 159.90234375 -78.5078125 161.66796875 C-81.48649063 163.82682721 -84.73207703 163.30859226 -88.2109375 162.90234375 C-97.34712649 161.42833652 -103.0857318 158.16095993 -108.7890625 150.890625 C-122.52542837 130.1776312 -125.99321144 102.01421241 -129.2109375 77.90234375 C-129.34097168 76.93103516 -129.47100586 75.95972656 -129.60498047 74.95898438 C-130.94223533 64.84688044 -132.19380817 54.75399407 -132.98388672 44.58276367 C-133.16350723 42.46227599 -133.4164147 40.34800814 -133.6953125 38.23828125 C-134.11768627 33.53005597 -134.14294144 30.24434943 -131.390625 26.28125 C-128.50978357 23.5281523 -125.46782843 21.18012226 -122.2109375 18.90234375 C-121.53579102 18.41878418 -120.86064453 17.93522461 -120.16503906 17.43701172 C-82.72831858 -9.1672071 -43.49335642 -18.76649335 0 0 Z " fill="#F1B89A" transform="translate(284.2109375,63.09765625)"/>
<path d="M0 0 C0.97839844 0.75023437 0.97839844 0.75023437 1.9765625 1.515625 C13.19237151 10.42681572 20.23875778 21.82414797 22 36 C23.33309052 49.00773177 19.76151407 62.5083051 12 73 C11.54882812 73.63164062 11.09765625 74.26328125 10.6328125 74.9140625 C1.8748979 86.14596428 -12.05667981 91.83984908 -25.859375 93.71875 C-36.1683448 94.64194133 -45.64724311 94.03757815 -55.74658203 91.97973633 C-62.61079857 90.64119082 -67.56838595 90.89842855 -73.62109375 94.72265625 C-75.23542956 95.82304025 -76.84078784 96.9366957 -78.4375 98.0625 C-79.26443359 98.63033203 -80.09136719 99.19816406 -80.94335938 99.78320312 C-82.97043953 101.17755306 -84.98861806 102.58314344 -87 104 C-88.19144567 99.92787867 -87.69975998 96.76508377 -87.0625 92.5625 C-86.68500809 90.04505396 -86.32878004 87.52426988 -86 85 C-85.88269531 84.113125 -85.76539063 83.22625 -85.64453125 82.3125 C-86.17409463 78.86742835 -88.03575606 77.69449582 -90.625 75.4375 C-100.44395076 66.09141656 -103.93582939 55.09129044 -104.375 41.875 C-104.07984937 23.44653251 -96.38546867 8.06845887 -83.98046875 -5.15234375 C-58.39249462 -29.88580297 -24.72336216 -20.23512103 0 0 Z " fill="#F6C57B" transform="translate(484,106)"/>
<path d="M0 0 C0.66 0.33 1.32 0.66 2 1 C1.47650497 7.6198928 0.15274936 13.31765553 -2.0625 19.5625 C-2.34416016 20.38041016 -2.62582031 21.19832031 -2.91601562 22.04101562 C-3.60235441 24.03023483 -4.2999845 26.0155524 -5 28 C-4.67 28.33 -4.34 28.66 -4 29 C-3.43152344 28.28714844 -2.86304688 27.57429688 -2.27734375 26.83984375 C8.45542328 13.52691236 8.45542328 13.52691236 12 11 C13.32 11 14.64 11 16 11 C15.54163153 22.45921178 9.20160943 33.01106862 4 43 C4.6290625 42.40832031 5.258125 41.81664062 5.90625 41.20703125 C19.12887439 29 19.12887439 29 25 29 C23.83675778 41.51648631 12.79005794 53.35049304 4 62 C2.08988854 63.39253287 0.15474654 64.75192201 -1.8125 66.0625 C-4.17057924 67.70695473 -4.17057924 67.70695473 -6 70 C-6.35221457 72.86702505 -6.35221457 72.86702505 -5.86621094 75.98413086 C-5.73637817 77.14121552 -5.60654541 78.29830017 -5.47277832 79.490448 C-5.31676147 80.64860016 -5.16074463 81.80675232 -5 83 C-4.81093079 84.51329391 -4.81093079 84.51329391 -4.61804199 86.05715942 C-4.21874138 89.10704319 -3.77857813 92.14867477 -3.328125 95.19140625 C-2.99209538 97.51998276 -2.65633138 99.84859762 -2.32080078 102.17724609 C-2.14583069 103.38209656 -1.9708606 104.58694702 -1.79058838 105.82830811 C14.48735387 218.27053289 14.48735387 218.27053289 7 241 C-0.87418129 241.71110906 -5.86134257 240.19731483 -12.625 236.25 C-14.22099437 235.35873041 -15.8173451 234.46809863 -17.4140625 233.578125 C-18.18556641 233.13847412 -18.95707031 232.69882324 -19.75195312 232.24584961 C-21.82995783 231.09423601 -23.92833075 230.04567897 -26.0703125 229.01953125 C-30.40984075 226.88273241 -34.30183704 224.2184779 -38.25 221.4375 C-38.94351562 220.95603516 -39.63703125 220.47457031 -40.3515625 219.97851562 C-42.24186246 218.66218605 -44.12760678 217.34167817 -46 216 C-46.72944824 215.5762207 -47.45889648 215.15244141 -48.21044922 214.71582031 C-50 213 -50 213 -50.39404297 210.28637695 C-50.34393066 209.19800537 -50.29381836 208.10963379 -50.2421875 206.98828125 C-50.19441162 205.7657666 -50.14663574 204.54325195 -50.09741211 203.28369141 C-50.02401611 201.97319824 -49.95062012 200.66270508 -49.875 199.3125 C-49.81324777 197.9653904 -49.75279257 196.61822075 -49.69360352 195.27099609 C-49.13004437 183.15732078 -48.17211331 171.06918421 -47 159 C-43 159 -43 159 -40.203125 161.40625 C-39.20839039 162.42751087 -38.22429311 163.4592197 -37.25 164.5 C-36.74339844 165.02464844 -36.23679687 165.54929687 -35.71484375 166.08984375 C-34.46734913 167.38441363 -33.23242693 168.6910776 -32 170 C-29.85188341 167.85188341 -30.52212807 163.08899165 -30.3515625 160.10571289 C-30.29450134 159.17243668 -30.23744019 158.23916046 -30.1786499 157.27760315 C-30.05492071 155.24405736 -29.93335504 153.21037908 -29.81365967 151.17659187 C-29.62438517 147.96221479 -29.4294224 144.74822867 -29.23291016 141.5342865 C-28.81674964 134.71066634 -28.4079666 127.88661426 -28 121.0625 C-27.52738836 113.16149166 -27.05180735 105.26068286 -26.56903076 97.36028862 C-26.37658412 94.18628307 -26.18942039 91.01199342 -26.00244141 87.83766174 C-25.88469289 85.899653 -25.76670471 83.9616588 -25.6484375 82.02368164 C-25.59749939 81.13477234 -25.54656128 80.24586304 -25.49407959 79.33001709 C-25.1138286 73.22765721 -25.1138286 73.22765721 -24 71 C-24.70125 70.835 -25.4025 70.67 -26.125 70.5 C-31.3231366 67.78792873 -34.2405046 63.18713795 -36.13671875 57.7265625 C-40.24698249 39.98361403 -34.46055658 21.69339832 -26 6 C-24.0625 6.3125 -24.0625 6.3125 -22 7 C-21.05862745 9.82411765 -20.88274618 11.52918032 -20.90234375 14.44921875 C-20.90556641 15.29677734 -20.90878906 16.14433594 -20.91210938 17.01757812 C-20.92048828 17.89865234 -20.92886719 18.77972656 -20.9375 19.6875 C-20.94201172 20.58017578 -20.94652344 21.47285156 -20.95117188 22.39257812 C-20.96295017 24.59511987 -20.97939836 26.79752599 -21 29 C-20.68361572 28.47680176 -20.36723145 27.95360352 -20.04125977 27.41455078 C-14.04954515 17.56382084 -8.27146519 8.12525242 0 0 Z M-7 31 C-6 33 -6 33 -6 33 Z " fill="#F1B99A" transform="translate(438,213)"/>
<path d="M0 0 C5.0428125 0.8971875 5.0428125 0.8971875 10.1875 1.8125 C43.88083922 7.4562793 77.18982495 7.95843872 111.25100708 6.4337616 C121.59375737 5.973273 131.93903262 5.72972481 142.2890625 5.5 C143.72749008 5.4677341 143.72749008 5.4677341 145.19497681 5.43481636 C165.79532088 4.97598796 186.39582021 4.65846008 207 4.4375 C207.9378043 4.42730709 208.8756086 4.41711418 209.84183121 4.4066124 C246.95746687 4.00679174 284.07378923 3.8623672 321.19132626 3.82134479 C326.16768504 3.81547217 331.14401642 3.8046546 336.12036133 3.79171753 C451.02263033 3.50484936 451.02263033 3.50484936 486 11 C486 14.3 486 17.6 486 21 C325.62 21 165.24 21 0 21 C0 14.07 0 7.14 0 0 Z " fill="#DB7B2D" transform="translate(6,491)"/>
<path d="M0 0 C0.94202499 2.82607497 0.97328822 4.8280652 0.875 7.875 C0.83711872 11.94344943 1.68673204 14.56998198 4 18 C7.53861697 20.7735106 10.62223121 21.34182511 15 22 C15.23074219 22.78503906 15.46148437 23.57007813 15.69921875 24.37890625 C18.31463068 32.80404745 20.50271492 39.210343 28.25 43.9375 C36.03690812 47.50259046 46.40177304 47.3437041 54.515625 44.97265625 C55.33546875 44.65167969 56.1553125 44.33070313 57 44 C57.35191406 44.60328125 57.70382813 45.2065625 58.06640625 45.828125 C61.79747904 51.86798174 64.88292541 55.38927202 71.82421875 57.57421875 C82.15910255 59.59666459 90.40258723 57.73160851 99 52 C100.58530167 52.20677848 102.16974288 52.4248417 103.74609375 52.69140625 C117.51505619 54.57658482 133.31124476 51.81597489 145 44 C146.1446875 42.63875 146.1446875 42.63875 147.3125 41.25 C151.20288856 37.99293051 154.82316774 38.49976587 159.76953125 38.29296875 C166.76695362 37.65837785 171.47175845 34.24322705 176 29 C179.8494759 24.22900641 179.8494759 24.22900641 183 19 C185.80078125 18.65625 185.80078125 18.65625 189.3125 18.5 C194.47024563 18.26896996 197.90742903 17.94310161 201.75 14.375 C202.36875 13.694375 202.36875 13.694375 203 13 C198.79798279 29.02464189 179.01083632 40.55774879 165.62109375 48.421875 C152.71416795 55.7665368 138.56576947 61.08684611 124 64 C124.99 68.95 124.99 68.95 126 74 C137.22 74.33 148.44 74.66 160 75 C157.74905696 86.2547152 157.74905696 86.2547152 156.08984375 90.09765625 C155.73986328 90.91814453 155.38988281 91.73863281 155.02929688 92.58398438 C154.66900391 93.40189453 154.30871094 94.21980469 153.9375 95.0625 C153.39125977 96.34157227 153.39125977 96.34157227 152.83398438 97.64648438 C150.1672247 103.8327753 150.1672247 103.8327753 149 105 C147.08583594 105.16032387 145.16587444 105.25183168 143.24609375 105.31640625 C142.0135083 105.35878418 140.78092285 105.40116211 139.51098633 105.44482422 C138.15318585 105.48501717 136.79535569 105.52421773 135.4375 105.5625 C134.75626068 105.58201721 134.07502136 105.60153442 133.37313843 105.62164307 C129.00494335 105.74379738 124.63649316 105.84852658 120.2677002 105.94671631 C117.99827208 106.0000406 115.72915436 106.06107525 113.45996094 106.12353516 C109.78274758 106.22197007 106.10595351 106.29168019 102.42776489 106.34103394 C101.02206219 106.36360614 99.61646989 106.39474159 98.21115112 106.43460083 C96.24153596 106.488255 94.27105522 106.50661034 92.30078125 106.5234375 C91.17841064 106.54325684 90.05604004 106.56307617 88.8996582 106.58349609 C86 106 86 106 83.72192383 103.67822266 C81.71216739 100.5523148 79.98872745 97.3417011 78.375 94 C78.0759375 93.39671875 77.776875 92.7934375 77.46875 92.171875 C73 83.07618916 73 83.07618916 73 79 C75.83275953 78.66103732 78.66604661 78.32870306 81.5 78 C82.29148437 77.90460938 83.08296875 77.80921875 83.8984375 77.7109375 C88.97029404 77.12892118 93.89493859 76.90632915 99 77 C98.505 75.63875 98.505 75.63875 98 74.25 C97 71 97 71 97 67 C96.0112085 67.02066528 96.0112085 67.02066528 95.00244141 67.04174805 C77.96658627 67.2410241 61.04864336 64.73426167 45 59 C44.35240723 58.77441406 43.70481445 58.54882812 43.03759766 58.31640625 C25.93775713 52.27061994 6.88172471 41.62165108 -1.3125 24.5625 C-4.25705643 17.29351133 -4.36501798 11.46847783 -2 4 C-0.875 1.5 -0.875 1.5 0 0 Z " fill="#F1B99B" transform="translate(136,225)"/>
<path d="M0 0 C0.66 0 1.32 0 2 0 C3.24584961 1.33837891 3.24584961 1.33837891 4.65234375 3.2265625 C5.17683105 3.92241455 5.70131836 4.6182666 6.24169922 5.33520508 C7.08112061 6.46865356 7.08112061 6.46865356 7.9375 7.625 C9.10417532 9.18456218 10.27216705 10.74314035 11.44140625 12.30078125 C12.03195801 13.08791504 12.62250977 13.87504883 13.23095703 14.68603516 C14.89441049 16.86188554 16.6002455 18.99024595 18.33984375 21.10546875 C18.85232666 21.73308105 19.36480957 22.36069336 19.89282227 23.00732422 C20.86404107 24.19019225 21.84472446 25.36536639 22.83569336 26.53173828 C26.00514676 30.42562133 26.00514676 30.42562133 25.98046875 33.1796875 C24.85285061 35.27319369 23.65923888 36.66920025 21.9375 38.3125 C20.99003906 39.21935547 20.99003906 39.21935547 20.0234375 40.14453125 C16.73534636 43.15967274 13.3820514 46.0910522 10 49 C8.49888785 50.31122788 6.99885314 51.62369046 5.5 52.9375 C4.33333333 53.95833333 3.16666667 54.97916667 2 56 C8.5291851 56.1326471 14.93172795 55.82909464 21.43359375 55.21875 C26.29109645 54.92080898 31.13504111 54.96069161 36 55 C36.85831266 59.07432192 37.71270274 63.14944069 38.56347656 67.2253418 C38.853416 68.61163502 39.14442379 69.99770526 39.43652344 71.38354492 C39.85633299 73.37621237 40.27228675 75.36965167 40.6875 77.36328125 C40.93886719 78.56251221 41.19023438 79.76174316 41.44921875 80.99731445 C42 84 42 84 42 87 C34.54915359 87.02336702 27.09831107 87.0410374 19.64743614 87.05181217 C16.18616804 87.05698848 12.72492536 87.06398826 9.26367188 87.07543945 C5.26692487 87.08857663 1.27020377 87.09327154 -2.7265625 87.09765625 C-4.55400497 87.10539818 -4.55400497 87.10539818 -6.41836548 87.11329651 C-18.29077574 87.11405635 -29.98011194 86.52733124 -41.625 84.125 C-42.48222656 83.96386719 -43.33945312 83.80273438 -44.22265625 83.63671875 C-48.46924194 82.78210166 -51.78204084 82.11128648 -55 79 C-54.11980533 59.63571728 -34.30063174 40.83209281 -22.53808594 26.83789062 C-20.45690968 24.35105017 -18.41596237 21.83238856 -16.375 19.3125 C-12.80228152 14.95257236 -9.19848268 10.61974934 -5.5625 6.3125 C-5.04155762 5.68706299 -4.52061523 5.06162598 -3.98388672 4.41723633 C-2.69986096 2.90635613 -1.35477956 1.44777535 0 0 Z " fill="#F1B99A" transform="translate(83,385)"/>
<path d="M0 0 C0 11.88 0 23.76 0 36 C-8.97280845 35.40181277 -17.64800903 34.76859245 -26.5 33.5 C-34.35278693 32.4192225 -42.11807368 31.59157998 -50.0390625 31.2109375 C-53 31 -53 31 -55.36845398 30.51112366 C-57.95927762 30.00790948 -60.4327209 29.76756439 -63.06567383 29.61108398 C-64.04631302 29.55109726 -65.02695221 29.49111053 -66.03730774 29.42930603 C-67.0833165 29.36884598 -68.12932526 29.30838593 -69.20703125 29.24609375 C-70.82782845 29.14833397 -70.82782845 29.14833397 -72.48136902 29.04859924 C-75.92489392 28.84164815 -79.36868219 28.63951233 -82.8125 28.4375 C-85.15040962 28.2978436 -87.48830051 28.15787333 -89.82617188 28.01757812 C-95.55056912 27.67474601 -101.27518996 27.33586458 -107 27 C-107.11039334 18.59784035 -106.95458649 10.35263176 -106 2 C-89.45059879 0.37266643 -77.09343102 -0.33711744 -63 9 C-57.4624897 12.09511032 -53.26285754 12.57683395 -47 13 C-46.34 9.04 -45.68 5.08 -45 1 C-29.98611501 -0.09905563 -15.05396431 -0.07603012 0 0 Z " fill="#DC7B2E" transform="translate(492,441)"/>
<path d="M0 0 C4.75337633 2.03716129 7.26387672 4.70543837 9.8125 9.1875 C11.37385853 14.20028266 11.39353092 19.21293817 9 24 C9.70873417 26.12985898 9.70873417 26.12985898 10.8125 28.5 C12.35721359 32.13060234 13.34151417 35.41522008 13.9375 39.3125 C14.76777163 43.99552334 16.39894591 45.81767313 20 49 C27.38422523 58.93947032 28.74815782 67.87121075 28 80 C26.53667321 84.38998038 23.10747043 86.94626478 19 89 C16.7927077 89.07092842 14.58332548 89.08415025 12.375 89.0625 C11.18648437 89.05347656 9.99796875 89.04445313 8.7734375 89.03515625 C7.40058594 89.01775391 7.40058594 89.01775391 6 89 C5.73316406 89.7321875 5.46632813 90.464375 5.19140625 91.21875 C1.66452863 99.45198563 -3.98867608 104.34513939 -12 108 C-12.99 108.495 -12.99 108.495 -14 109 C-16.0414284 109.05204775 -18.08317749 109.09183815 -20.125 109.125 C-26.27234109 109.54154114 -28.60253855 110.84083426 -32.78125 115.15234375 C-37.37230892 118.9755319 -43.35315275 120.33072414 -49 122 C-49.80695313 122.2475 -50.61390625 122.495 -51.4453125 122.75 C-58.93937371 124.74104209 -67.36426189 124.87883392 -74.9375 123.25 C-79.12647437 122.90804291 -80.69271281 124.53712656 -84 127 C-91.33788807 129.94338848 -99.966915 130.37082615 -107.5 127.75 C-113.95371688 124.52314156 -116.7459552 121.26704925 -120 115 C-120.81984375 115.32097656 -121.6396875 115.64195312 -122.484375 115.97265625 C-130.54787636 118.32899054 -140.92754429 118.50792518 -148.6875 115 C-155.73519095 110.73303065 -159.17903682 104.69450689 -161.5546875 96.98046875 C-162 95 -162 95 -162 92 C-162.86625 92.0825 -163.7325 92.165 -164.625 92.25 C-168.90137718 91.93323132 -170.74040931 90.75254325 -174 88 C-178.22793363 81.79903068 -177.41213027 75.75198866 -176.125 68.75 C-175.47809943 65.52576543 -174.57707336 62.88909238 -173 60 C-173.61875 59.731875 -174.2375 59.46375 -174.875 59.1875 C-177 58 -177 58 -179 55 C-179.71582792 50.28669147 -179.23345529 46.08676663 -177.4375 41.6875 C-175.99234542 37.98036435 -175.80560204 37.46876054 -177 34 C-177.33 33.34 -177.66 32.68 -178 32 C-178.85835109 25.21761922 -177.39931105 20.84256587 -174 15 C-173.01 15 -172.02 15 -171 15 C-171.33 16.155 -171.66 17.31 -172 18.5 C-173.08401934 22.77500587 -173.15701377 26.60361453 -173 31 C-170.79016624 31.23180714 -170.79016624 31.23180714 -169.0625 29.125 C-168.381875 28.42375 -167.70125 27.7225 -167 27 C-164 25 -164 25 -161.375 25.3125 C-159 26 -159 26 -158 27 C-158.0625 30.3125 -158.0625 30.3125 -159 34 C-162.09557886 36.73562783 -164.06062126 37.90790404 -168.1875 38.3125 C-171.3293993 38.73056691 -171.3293993 38.73056691 -172.875 42.0625 C-174.29794172 46.19499543 -174.50659111 49.65779051 -174 54 C-172.15811388 56.05270463 -172.15811388 56.05270463 -170 57 C-169.814375 56.443125 -169.62875 55.88625 -169.4375 55.3125 C-167.31168165 51.89270527 -164.54042575 49.87390735 -161 48 C-157.10233851 47.29842093 -155.55530073 47.70462727 -152.0625 49.5625 C-150 52 -150 52 -149.8125 55.5625 C-151 59 -151 59 -153.25 60.9375 C-158.81887258 62.51534723 -164.25115606 62.23029494 -170 62 C-173.60349521 72.97101617 -173.60349521 72.97101617 -172.16796875 84.12890625 C-170.98767382 86.30584517 -170.98767382 86.30584517 -168 88 C-166.0103005 88.39013716 -164.00980131 88.73202649 -162 89 C-161.97421875 88.40832031 -161.9484375 87.81664062 -161.921875 87.20703125 C-161.63350385 83.18949677 -161.27632803 80.48357406 -159.25 76.9375 C-157 75 -157 75 -154.375 74.5625 C-152 75 -152 75 -150 77 C-150.18421044 82.61841847 -150.75381254 85.99645183 -155 90 C-157.13671875 90.62890625 -157.13671875 90.62890625 -159 91 C-157.18911376 99.45080244 -155.16217215 106.17630115 -147.68359375 111.08984375 C-144.71211826 112.69623305 -142.22176909 113.1275732 -138.91015625 113.1328125 C-138.12576172 113.13410156 -137.34136719 113.13539063 -136.53320312 113.13671875 C-135.71787109 113.13285156 -134.90253906 113.12898438 -134.0625 113.125 C-132.84530273 113.13080078 -132.84530273 113.13080078 -131.60351562 113.13671875 C-130.42499023 113.13478516 -130.42499023 113.13478516 -129.22265625 113.1328125 C-128.50859619 113.13168457 -127.79453613 113.13055664 -127.05883789 113.12939453 C-124.93216104 112.99573643 -123.04645477 112.57960342 -121 112 C-121.33 111.34 -121.66 110.68 -122 110 C-122.12145993 108.16962713 -122.17543185 106.33435867 -122.1875 104.5 C-122.20167969 103.5203125 -122.21585938 102.540625 -122.23046875 101.53125 C-122 99 -122 99 -120 97 C-117.5 96.6875 -117.5 96.6875 -115 97 C-112.80601144 100.29098284 -112.78496336 100.84832581 -113.25 104.5625 C-113.33765625 105.34753906 -113.4253125 106.13257813 -113.515625 106.94140625 C-114 109 -114 109 -116 111 C-115.91280676 114.92369576 -115.28719901 116.65695674 -112.75 119.6875 C-107.60501041 124.01396852 -103.93514405 125.53218163 -97.1875 125.4375 C-96.47916016 125.43427734 -95.77082031 125.43105469 -95.04101562 125.42773438 C-89.33814431 125.27558785 -85.69629728 124.13086485 -81 121 C-81.46019531 120.07960938 -81.46019531 120.07960938 -81.9296875 119.140625 C-84.42380164 114.15239671 -86.09735802 109.66414091 -85 104 C-83.28671617 100.89424644 -80.9382572 98.71933052 -78.125 96.5625 C-74.87952565 95.70340385 -72.23863996 96.28030223 -69 97 C-67 99 -67 99 -66.625 102.5625 C-66.78327531 109.24658806 -69.9492606 114.8466238 -74 120 C-58.37518695 120.81379235 -45.13196063 119.19237244 -32 110 C-31.34 110 -30.68 110 -30 110 C-30.763125 109.2575 -31.52625 108.515 -32.3125 107.75 C-33.199375 106.8425 -34.08625 105.935 -35 105 C-35.928125 104.071875 -35.928125 104.071875 -36.875 103.125 C-38.61313949 99.84184763 -37.89367049 97.51084834 -37 94 C-35.875 92 -35.875 92 -34 91 C-27.87862624 91.10931025 -27.87862624 91.10931025 -25.29296875 93.73046875 C-23.73513452 96.46491494 -23.68927682 98.12834616 -23.8125 101.25 C-23.85310547 102.58804688 -23.85310547 102.58804688 -23.89453125 103.953125 C-23.92933594 104.62859375 -23.96414063 105.3040625 -24 106 C-14.55184339 105.07276974 -7.34726854 103.17784424 -1.078125 95.7109375 C0.48855716 93.50464657 1.91378663 91.47940008 3 89 C2.24847612 85.83562756 2.24847612 85.83562756 -0.4375 84.0625 C-2.94264482 82.04616392 -4.07948323 81.03770535 -5 78 C-4.8498476 74.9218759 -4.43941062 73.49011185 -2.375 71.1875 C0.92823956 69.53588022 3.35836306 69.60273052 7 70 C8.703125 71.2109375 8.703125 71.2109375 10 73 C10.29296875 75.375 10.29296875 75.375 10.1875 78 C10.16042969 78.86625 10.13335937 79.7325 10.10546875 80.625 C10.07066406 81.40875 10.03585937 82.1925 10 83 C10 83.99 10 84.98 10 86 C16.150228 85.81660519 16.150228 85.81660519 21.5 83.125 C25.09127216 78.03736445 24.52377889 71.96525962 24 66 C22.30358947 59.4725073 19.12338599 54.26877099 15 49 C12.03824877 49.61277612 10.61941217 50.25372522 8 52 C3.88229546 52.45752273 1.68383734 52.39284273 -1.9375 50.3125 C-4 48 -4 48 -4.5 45.375 C-4 43 -4 43 -1 41 C0.9375 40.76953125 0.9375 40.76953125 3 40.8125 C3.680625 40.81894531 4.36125 40.82539063 5.0625 40.83203125 C7 41 7 41 10 42 C9.566875 40.62714844 9.566875 40.62714844 9.125 39.2265625 C8.75375 38.03804687 8.3825 36.84953125 8 35.625 C7.443125 33.84996094 7.443125 33.84996094 6.875 32.0390625 C6 29 6 29 6 27 C5.09507812 26.96132812 5.09507812 26.96132812 4.171875 26.921875 C-2.32527642 26.46078683 -2.32527642 26.46078683 -5.5625 24.25 C-7.26808327 21.58039141 -7.42052585 20.11189129 -7 17 C-6 16 -6 16 -2.1875 15.75 C1.43966299 15.77604785 3.36005703 16.36005703 6 19 C6.55749749 13.4250251 4.86536931 9.64315318 2 5 C1.01 4.01 1.01 4.01 0 3 C0 2.01 0 1.02 0 0 Z M1 21 C2 23 2 23 2 23 Z " fill="#371B2C" transform="translate(313,155)"/>
<path d="M0 0 C0.94202499 2.82607497 0.97328822 4.8280652 0.875 7.875 C0.83711872 11.94344943 1.68673204 14.56998198 4 18 C7.53861697 20.7735106 10.62223121 21.34182511 15 22 C15.23074219 22.78503906 15.46148437 23.57007813 15.69921875 24.37890625 C18.31463068 32.80404745 20.50271492 39.210343 28.25 43.9375 C36.03690812 47.50259046 46.40177304 47.3437041 54.515625 44.97265625 C55.33546875 44.65167969 56.1553125 44.33070313 57 44 C57.35191406 44.60328125 57.70382813 45.2065625 58.06640625 45.828125 C61.79747904 51.86798174 64.88292541 55.38927202 71.82421875 57.57421875 C82.15910255 59.59666459 90.40258723 57.73160851 99 52 C100.58530167 52.20677848 102.16974288 52.4248417 103.74609375 52.69140625 C117.51505619 54.57658482 133.31124476 51.81597489 145 44 C146.1446875 42.63875 146.1446875 42.63875 147.3125 41.25 C151.20288856 37.99293051 154.82316774 38.49976587 159.76953125 38.29296875 C166.76695362 37.65837785 171.47175845 34.24322705 176 29 C179.8494759 24.22900641 179.8494759 24.22900641 183 19 C185.80078125 18.65625 185.80078125 18.65625 189.3125 18.5 C194.47024563 18.26896996 197.90742903 17.94310161 201.75 14.375 C202.36875 13.694375 202.36875 13.694375 203 13 C198.79798279 29.02464189 179.01083632 40.55774879 165.62109375 48.421875 C158.97725885 52.20253672 152.14617914 55.30041221 145 58 C144.37480469 58.23944336 143.74960937 58.47888672 143.10546875 58.72558594 C131.39073212 63.09738982 119.37715479 64.64500759 107 66 C106.17467773 66.09861328 105.34935547 66.19722656 104.49902344 66.29882812 C84.52696916 68.55208553 63.88614503 65.74811541 45 59 C44.35240723 58.77441406 43.70481445 58.54882812 43.03759766 58.31640625 C25.93775713 52.27061994 6.88172471 41.62165108 -1.3125 24.5625 C-4.25705643 17.29351133 -4.36501798 11.46847783 -2 4 C-0.875 1.5 -0.875 1.5 0 0 Z " fill="#E65268" transform="translate(136,225)"/>
<path d="M0 0 C2.98896953 2.70430577 5.84139245 5.45883971 8.625 8.375 C10.171875 7.199375 10.171875 7.199375 11.75 6 C18.61258335 1.18391268 25.35915714 0.45531144 33.625 1.375 C37.35034268 3.17114736 39.08342796 4.56688244 41.37109375 7.98046875 C43.44414099 10.64872603 43.44414099 10.64872603 46.69140625 10.9765625 C47.84511719 10.98429688 48.99882812 10.99203125 50.1875 11 C59.30074451 11.36945586 67.54758327 12.23304779 74.3203125 18.84375 C77.48244069 22.55499028 78.08299257 26.24049711 77.9375 31.078125 C76.25203752 43.4662742 68.30511754 53.96799213 60.625 63.375 C59.635 63.045 58.645 62.715 57.625 62.375 C58.91775562 58.72599029 60.44363967 56.13478948 62.9375 53.1875 C69.49635329 45.01289579 73.16797241 36.78638548 73.015625 26.26171875 C72.83180049 23.12864262 72.83180049 23.12864262 70.3125 20.3125 C62.77765288 15.5545801 53.2964896 14.86140851 44.625 14.375 C44.955 15.035 45.285 15.695 45.625 16.375 C46.02782133 21.61167727 45.45587029 24.92648954 42.625 29.375 C40.12985662 32.04836791 38.7969268 32.35043903 35.125 32.875 C31.625 32.375 31.625 32.375 29.1875 30.25 C27.3213966 26.81636975 26.91825792 25.22281797 27.625 21.375 C30.71438468 16.74092298 33.40929883 14.55831677 38.625 12.375 C37.6445412 9.79015408 36.68577857 8.42656969 34.5625 6.625 C29.47919725 4.46189245 25.06367155 4.43436955 19.890625 6.4296875 C16.41346795 8.12806768 13.37370064 9.62629936 10.625 12.375 C10.8325738 13.93180348 11.05203581 15.48765776 11.3203125 17.03515625 C11.7157453 20.07187736 11.81356478 23.06347825 11.875 26.125 C11.90078125 27.23359375 11.9265625 28.3421875 11.953125 29.484375 C11.625 32.375 11.625 32.375 10.234375 34.26953125 C8.625 35.375 8.625 35.375 6.625 35.3125 C4.02939667 34.09581094 3.13519425 32.80059133 1.625 30.375 C0.58929151 24.22167309 1.71279464 19.81955785 4.625 14.375 C4.38622876 11.03220261 3.53374746 8.14268382 1.625 5.375 C-0.83204762 4.14209799 -0.83204762 4.14209799 -3.375 3.375 C-4.365 2.88 -4.365 2.88 -5.375 2.375 C-12.17376574 1.21745152 -16.52759171 3.11595181 -22.2109375 6.76953125 C-24.15855255 8.21442256 -25.8619409 9.47995549 -27.375 11.375 C-27.13572994 13.71984656 -26.7804103 16.05310464 -26.375 18.375 C-25.74268278 25.30790664 -26.32389649 30.57581758 -30.375 36.375 C-32.375 38.4375 -32.375 38.4375 -34.375 39.375 C-36.5 39.25 -36.5 39.25 -38.375 38.375 C-40.88651194 34.60773209 -40.98276471 31.73186747 -40.375 27.375 C-39.04279772 22.99776393 -37.53459114 18.86318723 -34.70703125 15.234375 C-34.26746094 14.62078125 -33.82789063 14.0071875 -33.375 13.375 C-34.27254311 8.88728447 -36.69078738 6.89104764 -40.375 4.375 C-45.11578582 2.79473806 -49.11417851 2.34006313 -53.6875 4.43359375 C-59.15215714 7.83977362 -63.00133576 11.91077005 -66.375 17.375 C-66.77847656 18.01179688 -67.18195313 18.64859375 -67.59765625 19.3046875 C-68.65370365 22.11727606 -68.34864993 23.54573922 -67.375 26.375 C-65.61668306 28.71803344 -65.61668306 28.71803344 -63.4375 30.875 C-59.623941 34.80621871 -57.62474311 37.92751749 -57.0625 43.4375 C-57.40898927 46.69449917 -58.18368732 48.00107793 -60.375 50.375 C-63.92325027 50.13307385 -65.86484711 49.82684971 -68.5625 47.4375 C-72.52309096 40.745467 -73.80261759 34.07211669 -73.375 26.375 C-79.36835418 27.26734384 -84.4817402 28.39249023 -88.375 33.375 C-92.45674467 40.08981257 -95.08537556 46.63725338 -96.375 54.375 C-95.34375 54.2925 -94.3125 54.21 -93.25 54.125 C-88.7509016 54.41526441 -86.83778168 55.57179578 -83.375 58.375 C-81.95458179 61.21583641 -82.06047728 63.22977278 -82.375 66.375 C-84.4310222 69.30087775 -85.95203952 70.22201429 -89.3125 71.4375 C-92.375 71.375 -92.375 71.375 -95.1875 69.375 C-97.70123116 65.92759727 -98.12718511 63.5878532 -98.375 59.375 C-102.52957718 63.25260537 -104.21713004 65.44898647 -104.6875 71.1875 C-104.50710762 77.26446827 -102.0365983 82.3396687 -98.03125 86.89453125 C-93.48974783 90.95403437 -87.81546221 93.7113095 -82.375 96.375 C-82.705 97.035 -83.035 97.695 -83.375 98.375 C-90.45227503 98.2211462 -95.09664149 94.9142144 -100.375 90.375 C-106.41665619 83.70064471 -108.84259407 78.45842614 -108.69921875 69.42578125 C-108.09471581 63.73762709 -105.71478297 59.12247663 -101.375 55.375 C-100.715 55.375 -100.055 55.375 -99.375 55.375 C-99.4575 54.281875 -99.54 53.18875 -99.625 52.0625 C-99.57376593 42.3963382 -94.86192092 34.24685908 -88.375 27.375 C-83.79258179 23.19990785 -80.30045565 22.988698 -74.3515625 23.234375 C-73.37316406 23.30398437 -73.37316406 23.30398437 -72.375 23.375 C-72.33375 22.570625 -72.2925 21.76625 -72.25 20.9375 C-70.22818375 12.70581957 -64.23539114 6.14687129 -57.375 1.375 C-52.10891669 -1.18965096 -47.1273712 -1.17485901 -41.375 -0.625 C-37.13669939 0.91620022 -34.27584663 2.91629825 -31.375 6.375 C-31.375 7.035 -31.375 7.695 -31.375 8.375 C-30.47136719 7.73691406 -29.56773437 7.09882813 -28.63671875 6.44140625 C-27.4454474 5.6065783 -26.2540337 4.77195346 -25.0625 3.9375 C-24.46759766 3.51662109 -23.87269531 3.09574219 -23.25976562 2.66210938 C-16.26406563 -2.22315598 -7.95085773 -3.82819076 0 0 Z " fill="#2F1929" transform="translate(226.375,1.625)"/>
<path d="M0 0 C0.86625 0.804375 1.7325 1.60875 2.625 2.4375 C2.625 2.7675 2.625 3.0975 2.625 3.4375 C-4.1724711 4.2745903 -10.91565198 4.71238121 -17.7578125 4.97265625 C-18.83910934 5.01572403 -19.92040619 5.05879181 -21.0344696 5.10316467 C-24.52282545 5.23988306 -28.01136656 5.37057084 -31.5 5.5 C-32.68242279 5.54485535 -33.86484558 5.58971069 -35.08309937 5.63592529 C-53.52310265 6.32867953 -71.9229126 6.7296412 -90.375 6.4375 C-88.40167422 0.45403764 -86.35964407 -5.50081316 -84.25 -11.4375 C-82.27709766 -16.9877325 -82.27709766 -16.9877325 -80.375 -22.5625 C-49.74579176 -27.49086994 -23.86101412 -19.92418684 0 0 Z " fill="#757A91" transform="translate(376.375,322.5625)"/>
<path d="M0 0 C0.84691406 0.00902344 1.69382812 0.01804687 2.56640625 0.02734375 C3.18386719 0.03894531 3.80132812 0.05054688 4.4375 0.0625 C4.88480469 1.04089844 5.33210938 2.01929688 5.79296875 3.02734375 C8.81418217 9.59257623 11.8375788 16.08382669 15.4921875 22.328125 C16.4375 24.0625 16.4375 24.0625 17.4375 27.0625 C8.1251134 27.37839963 -1.18739146 27.69071602 -10.5 28 C-11.18941555 28.02289848 -11.8788311 28.04579697 -12.58913803 28.06938934 C-36.57741863 28.86494623 -60.56640792 29.54699579 -84.5625 30.0625 C-64.20134887 9.23689288 -28.61197385 -0.40298555 0 0 Z " fill="#757A91" transform="translate(204.5625,304.9375)"/>
<path d="M0 0 C18.08336047 1.81219177 18.08336047 1.81219177 25.625 3 C67.92442545 9.02229108 111.32378765 6.04710328 153.89057446 4.73383141 C161.45739089 4.50077653 169.02454992 4.2808398 176.59196472 4.06813812 C178.19489835 4.02278128 179.79781411 3.97678812 181.40071106 3.93015289 C219.15167746 2.83223385 256.907891 2.78015071 294.67169297 2.76118094 C302.94084783 2.75694573 311.20988722 2.74480551 319.47900391 2.71875 C365.08010532 2.57814936 410.47699922 3.11714466 456 6 C456.80011127 6.05044905 457.60022255 6.10089809 458.42457962 6.1528759 C465.20679109 6.58781131 471.72877288 7.12039412 478.375 8.5625 C480.27378906 8.96662109 480.27378906 8.96662109 482.2109375 9.37890625 C483.13132812 9.58386719 484.05171875 9.78882813 485 10 C485 10.99 485 11.98 485 13 C484.38108887 12.91959473 483.76217773 12.83918945 483.12451172 12.75634766 C468.49444278 10.89809828 453.91110762 9.62922951 439.1875 8.875 C438.08810089 8.81762665 438.08810089 8.81762665 436.9664917 8.75909424 C411.80568254 7.46726366 386.65728677 6.84482013 361.46484375 6.8671875 C359.48094331 6.86639641 357.49704284 6.86559795 355.51314265 6.86433834 C347.77653392 6.85946044 340.03995027 6.86393839 332.30334473 6.87122726 C327.90348339 6.87529114 323.50362258 6.87709398 319.10375977 6.87869263 C281.40091778 6.89419538 243.70086157 7.02050191 206 7.4375 C204.63263765 7.45228519 204.63263765 7.45228519 203.23765182 7.46736908 C182.58538961 7.69154316 161.93737505 8.03683006 141.2890625 8.5 C139.89966965 8.53083837 139.89966965 8.53083837 138.48220825 8.56229973 C128.10699259 8.79512927 117.74275696 9.10021357 107.375 9.5625 C82.34177268 10.5299072 57.29907458 11.06060081 32.375 8.1875 C31.654263 8.10472809 30.933526 8.02195618 30.19094849 7.93667603 C20.03787118 6.73893556 10.02465693 4.98601694 0 3 C0 2.01 0 1.02 0 0 Z " fill="#3A2226" transform="translate(7,489)"/>
<path d="M0 0 C0.71349609 0.00451172 1.42699219 0.00902344 2.16210938 0.01367188 C3.87894474 0.02519426 5.59573543 0.0431137 7.3125 0.0625 C5.453125 5.8046875 5.453125 5.8046875 4.1875 8.125 C3.0984926 10.53637354 3.16718491 12.44682839 3.3125 15.0625 C7.87451983 17.61437984 12.19734062 18.85545929 17.3125 19.6875 C17.97894531 19.80867188 18.64539062 19.92984375 19.33203125 20.0546875 C30.9576523 22.03902356 42.82113198 22.21751739 54.5859375 22.37890625 C55.87569489 22.39968735 57.16545227 22.42046844 58.49429321 22.44187927 C61.87080394 22.49624008 65.24736607 22.54601646 68.6239624 22.59472656 C72.09049887 22.64558291 75.55696362 22.70092898 79.0234375 22.75585938 C85.78639585 22.86238369 92.54941942 22.96404869 99.3125 23.0625 C99.8075 25.0425 99.8075 25.0425 100.3125 27.0625 C89.46462707 28.12645772 78.68299595 28.24269977 67.79296875 28.265625 C66.87606073 28.26845238 65.95915272 28.27127975 65.01445961 28.27419281 C60.16548003 28.2890811 55.31652942 28.29837687 50.4675293 28.30273438 C45.50892147 28.30821608 40.55058856 28.33226803 35.59206676 28.36070633 C31.73203287 28.37948726 27.87206337 28.38454637 24.01198769 28.38607025 C22.1858704 28.38906053 20.35975323 28.39696311 18.53368187 28.41025543 C7.05470758 28.4878816 -3.47237463 27.59464042 -14.6875 25.0625 C-16.3375 24.7325 -17.9875 24.4025 -19.6875 24.0625 C-19.6875 16.4725 -19.6875 8.8825 -19.6875 1.0625 C-12.99882219 0.45443838 -6.65805685 -0.08314576 0 0 Z " fill="#DB7C2F" transform="translate(25.6875,448.9375)"/>
<path d="M0 0 C0.99 0 1.98 0 3 0 C2.67 1.155 2.34 2.31 2 3.5 C0.91598066 7.77500587 0.84298623 11.60361453 1 16 C3.20983376 16.23180714 3.20983376 16.23180714 4.9375 14.125 C5.618125 13.42375 6.29875 12.7225 7 12 C10 10 10 10 12.625 10.3125 C15 11 15 11 16 12 C15.9375 15.3125 15.9375 15.3125 15 19 C11.90442114 21.73562783 9.93937874 22.90790404 5.8125 23.3125 C2.6706007 23.73056691 2.6706007 23.73056691 1.125 27.0625 C-0.29794172 31.19499543 -0.50659111 34.65779051 0 39 C1.84188612 41.05270463 1.84188612 41.05270463 4 42 C4.185625 41.443125 4.37125 40.88625 4.5625 40.3125 C6.68831835 36.89270527 9.45957425 34.87390735 13 33 C16.89766149 32.29842093 18.44469927 32.70462727 21.9375 34.5625 C24 37 24 37 24.1875 40.5625 C23 44 23 44 20.75 45.9375 C15.18112742 47.51534723 9.74884394 47.23029494 4 47 C0.39650479 57.97101617 0.39650479 57.97101617 1.83203125 69.12890625 C3.01232618 71.30584517 3.01232618 71.30584517 6 73 C7.9896995 73.39013716 9.99019869 73.73202649 12 74 C12.02578125 73.40832031 12.0515625 72.81664062 12.078125 72.20703125 C12.36649615 68.18949677 12.72367197 65.48357406 14.75 61.9375 C17 60 17 60 19.625 59.5625 C22 60 22 60 24 62 C23.81578956 67.61841847 23.24618746 70.99645183 19 75 C16.86328125 75.62890625 16.86328125 75.62890625 15 76 C16.81088624 84.45080244 18.83782785 91.17630115 26.31640625 96.08984375 C29.28788174 97.69623305 31.77823091 98.1275732 35.08984375 98.1328125 C35.87423828 98.13410156 36.65863281 98.13539063 37.46679688 98.13671875 C38.28212891 98.13285156 39.09746094 98.12898438 39.9375 98.125 C41.15469727 98.13080078 41.15469727 98.13080078 42.39648438 98.13671875 C43.57500977 98.13478516 43.57500977 98.13478516 44.77734375 98.1328125 C45.49140381 98.13168457 46.20546387 98.13055664 46.94116211 98.12939453 C49.06783896 97.99573643 50.95354523 97.57960342 53 97 C52.67 96.34 52.34 95.68 52 95 C51.87854007 93.16962713 51.82456815 91.33435867 51.8125 89.5 C51.79832031 88.5203125 51.78414062 87.540625 51.76953125 86.53125 C52 84 52 84 54 82 C56.5 81.6875 56.5 81.6875 59 82 C61.19398856 85.29098284 61.21503664 85.84832581 60.75 89.5625 C60.66234375 90.34753906 60.5746875 91.13257813 60.484375 91.94140625 C60 94 60 94 58 96 C58.08719324 99.92369576 58.71280099 101.65695674 61.25 104.6875 C65.90783154 108.60431289 69.17503013 110.35027638 75.3125 110.6875 C76.38113281 110.75324219 77.44976562 110.81898438 78.55078125 110.88671875 C79.35902344 110.92410156 80.16726562 110.96148437 81 111 C81 111.33 81 111.66 81 112 C78.36 112 75.72 112 73 112 C73 112.66 73 113.32 73 114 C66.3471975 112.71612583 60.72356974 110.87245019 56.67578125 105.1171875 C55.71389069 103.44991054 54.84723644 101.72836233 54 100 C53.18015625 100.32097656 52.3603125 100.64195312 51.515625 100.97265625 C43.45212364 103.32899054 33.07245571 103.50792518 25.3125 100 C18.26480905 95.73303065 14.82096318 89.69450689 12.4453125 81.98046875 C12 80 12 80 12 77 C11.13375 77.0825 10.2675 77.165 9.375 77.25 C5.09862282 76.93323132 3.25959069 75.75254325 0 73 C-4.22793363 66.79903068 -3.41213027 60.75198866 -2.125 53.75 C-1.47809943 50.52576543 -0.57707336 47.88909238 1 45 C0.38125 44.731875 -0.2375 44.46375 -0.875 44.1875 C-3 43 -3 43 -5 40 C-5.71582792 35.28669147 -5.23345529 31.08676663 -3.4375 26.6875 C-1.99234542 22.98036435 -1.80560204 22.46876054 -3 19 C-3.33 18.34 -3.66 17.68 -4 17 C-4.85835109 10.21761922 -3.39931105 5.84256587 0 0 Z " fill="#2E1829" transform="translate(139,170)"/>
<path d="M0 0 C0.14589569 0.7213916 0.29179138 1.4427832 0.44210815 2.18603516 C1.82298428 9.01220487 3.20562039 15.83801602 4.59019279 22.66343689 C5.30180963 26.171753 6.01276524 29.6802003 6.72216797 33.18896484 C7.40787151 36.58038237 8.09536646 39.97143238 8.78406143 43.36224365 C9.17186992 45.27396287 9.55786227 47.18605022 9.94381714 49.09814453 C11.42399911 56.3820163 11.42399911 56.3820163 13.16845703 63.60546875 C14.0705485 67.28799363 14.15689274 70.23457427 14 74 C10.9069945 71.17990675 8.52375867 68.40964467 6.26171875 64.8828125 C3.05175112 60.00012144 -0.45068747 55.40259328 -4.0625 50.8125 C-4.66126953 50.04486328 -5.26003906 49.27722656 -5.87695312 48.48632812 C-8.50476999 45.12744282 -11.15054121 41.80592953 -13.93359375 38.57421875 C-16 36 -16 36 -16 34 C-16.99 33.67 -17.98 33.34 -19 33 C-20.60546875 31.15234375 -20.60546875 31.15234375 -22.1875 28.9375 C-22.71730469 28.20402344 -23.24710937 27.47054688 -23.79296875 26.71484375 C-24.19128906 26.14894531 -24.58960937 25.58304687 -25 25 C-21.42910055 17.30235354 -14.78464065 11.72015018 -8.6875 6 C-8.06456055 5.41162354 -7.44162109 4.82324707 -6.79980469 4.21704102 C-2.24238866 0 -2.24238866 0 0 0 Z " fill="#757991" transform="translate(101,351)"/>
<path d="M0 0 C3.65147275 3.13501135 6.01011507 6.80621661 7.0546875 11.51953125 C7.46566619 17.79528699 5.40120446 23.40578283 1.57421875 28.3515625 C-3.27777327 31.8794595 -8.47377817 33.12311846 -14.42578125 32.3515625 C-20.28332852 30.43271081 -24.52302672 27.95040533 -27.46875 22.37890625 C-29.88635983 16.39294654 -29.66120545 11.3810553 -27.42578125 5.3515625 C-25.01888956 0.76884071 -21.45067235 -1.70800585 -16.6015625 -3.2421875 C-10.73151582 -4.33821058 -5.01364981 -3.24893857 0 0 Z " fill="#F0B799" transform="translate(137.42578125,143.6484375)"/>
<path d="M0 0 C2 1 2 1 3.2890625 4.30859375 C3.74210268 5.68237148 4.18708349 7.05882681 4.625 8.4375 C4.96917969 9.47874023 4.96917969 9.47874023 5.3203125 10.54101562 C7 15.70505487 7 15.70505487 7 18 C8.78857422 18.18175781 8.78857422 18.18175781 10.61328125 18.3671875 C12.17973408 18.53602673 13.74613788 18.70532132 15.3125 18.875 C16.49102539 18.99294922 16.49102539 18.99294922 17.69335938 19.11328125 C18.45068359 19.19707031 19.20800781 19.28085937 19.98828125 19.3671875 C20.68477783 19.44050293 21.38127441 19.51381836 22.09887695 19.58935547 C24 20 24 20 27 22 C24.5664433 23.3410005 22.12864699 24.67294856 19.6875 26 C18.99720703 26.3815625 18.30691406 26.763125 17.59570312 27.15625 C12.33984375 30 12.33984375 30 9 30 C9.2165625 30.99 9.433125 31.98 9.65625 33 C11.0844606 39.7065647 12.42219171 46.10420204 12 53 C8.4225687 48.59639062 5.1102413 44.03484589 1.8046875 39.42578125 C0.07493932 36.97810114 0.07493932 36.97810114 -2 35 C-7.94 39.62 -13.88 44.24 -20 49 C-20.66 48.67 -21.32 48.34 -22 48 C-19.69 41.73 -17.38 35.46 -15 29 C-20.54651877 26.45035227 -20.54651877 26.45035227 -26.09936523 23.91455078 C-26.78716064 23.59470215 -27.47495605 23.27485352 -28.18359375 22.9453125 C-28.89056396 22.62062988 -29.59753418 22.29594727 -30.32592773 21.96142578 C-32 21 -32 21 -33 19 C-32.35562988 19.02843994 -31.71125977 19.05687988 -31.04736328 19.08618164 C-18.76658699 19.80095305 -18.76658699 19.80095305 -7.92919922 15.23681641 C-4.32128388 10.61780555 -2.0614181 5.45429039 0 0 Z " fill="#FBFDFC" transform="translate(256,387)"/>
<path d="M0 0 C4.52966583 2.47551505 7.16586374 5.37259122 8.8125 10.3125 C9.60980855 16.72513877 9.05267081 21.39589214 5.22265625 26.6875 C1.53302842 30.93925949 -2.47629452 31.95206807 -7.91796875 32.3671875 C-12.4106887 32.25892919 -15.65720433 30.74607269 -18.91796875 27.69140625 C-23.35622786 22.78929108 -24.57729234 19.0664523 -24.46484375 12.33203125 C-23.81429584 7.59494298 -20.57280758 4.50930836 -17.125 1.5 C-11.65504743 -2.57336894 -6.15469068 -2.8476927 0 0 Z " fill="#EFB799" transform="translate(334.1875,121.6875)"/>
<path d="M0 0 C4.48646534 2.60315433 7.69717754 5.26005572 9.84375 10.08984375 C10.59524116 15.26417352 10.65018671 20.26896005 8.28125 25.02734375 C4.72923434 29.49013266 1.74017415 31.68148162 -3.84375 32.46875 C-8.37841917 32.65974829 -11.45455579 32.42155374 -15.59375 30.46484375 C-20.14753003 26.24426714 -22.86995041 22.06735949 -23.46875 15.83984375 C-22.99072451 10.10353789 -20.84609557 6.6529509 -16.65625 2.77734375 C-15.41875 1.94203125 -15.41875 1.94203125 -14.15625 1.08984375 C-13.558125 0.67734375 -12.96 0.26484375 -12.34375 -0.16015625 C-8.0458719 -1.63371445 -4.161391 -1.75652917 0 0 Z " fill="#EA7D71" transform="translate(286.15625,146.91015625)"/>
<path d="M0 0 C3.82334099 1.63665825 6.1734189 4.09342719 8.9375 7.125 C10.84146847 12.27691469 10.96839474 17.85848136 9.34375 23.12890625 C7.47688612 26.85458717 4.85654509 29.48211333 1.125 31.33984375 C-4.57369882 33.11021158 -10.07047729 32.91213801 -15.4375 30.375 C-19.97879296 26.16599676 -22.64757858 21.99558208 -23.375 15.8125 C-22.76498918 9.61072329 -19.82363274 5.7791539 -15.4375 1.5 C-10.27846843 -0.75121377 -5.53676142 -0.86094414 0 0 Z " fill="#EA7C71" transform="translate(189,154)"/>
<path d="M0 0 C4.75337633 2.03716129 7.26387672 4.70543837 9.8125 9.1875 C11.37385853 14.20028266 11.39353092 19.21293817 9 24 C9.70873417 26.12985898 9.70873417 26.12985898 10.8125 28.5 C12.35721359 32.13060234 13.34151417 35.41522008 13.9375 39.3125 C14.76777163 43.99552334 16.39894591 45.81767313 20 49 C27.24667604 58.75432347 29.1285989 68.01046882 28 80 C27.34 80.66 26.68 81.32 26 82 C25.01 81.505 25.01 81.505 24 81 C24.04640625 80.03320312 24.0928125 79.06640625 24.140625 78.0703125 C24.46781217 66.26820394 22.31769575 58.35038902 15 49 C12.03824877 49.61277612 10.61941217 50.25372522 8 52 C3.88229546 52.45752273 1.68383734 52.39284273 -1.9375 50.3125 C-4 48 -4 48 -4.5 45.375 C-4 43 -4 43 -1 41 C0.9375 40.76953125 0.9375 40.76953125 3 40.8125 C3.680625 40.81894531 4.36125 40.82539063 5.0625 40.83203125 C7 41 7 41 10 42 C9.71125 41.08476562 9.4225 40.16953125 9.125 39.2265625 C8.75375 38.03804687 8.3825 36.84953125 8 35.625 C7.62875 34.44164062 7.2575 33.25828125 6.875 32.0390625 C6 29 6 29 6 27 C5.39671875 26.97421875 4.7934375 26.9484375 4.171875 26.921875 C-2.32527642 26.46078683 -2.32527642 26.46078683 -5.5625 24.25 C-7.26808327 21.58039141 -7.42052585 20.11189129 -7 17 C-6 16 -6 16 -2.1875 15.75 C1.43966299 15.77604785 3.36005703 16.36005703 6 19 C6.55749749 13.4250251 4.86536931 9.64315318 2 5 C1.34 4.34 0.68 3.68 0 3 C0 2.01 0 1.02 0 0 Z M1 21 C2 23 2 23 2 23 Z " fill="#2B1728" transform="translate(313,155)"/>
<path d="M0 0 C2 2 2 2 2.375 5.5625 C2.2141001 12.3574264 -1.01655466 17.68873955 -5 23 C1.93 23 8.86 23 16 23 C15.505 24.485 15.505 24.485 15 26 C11.69423521 27.3470798 8.21194433 27.13328307 4.6875 27.125 C2.95886719 27.12113281 2.95886719 27.12113281 1.1953125 27.1171875 C-1.32330096 27.02481781 -3.49519619 26.78664972 -5.9375 26.25 C-10.12647437 25.90804291 -11.69271281 27.53712656 -15 30 C-20.5254789 32.56999019 -26.03487024 32.19105398 -32 32 C-32 31.34 -32 30.68 -32 30 C-30.83984375 29.85304688 -30.83984375 29.85304688 -29.65625 29.703125 C-22.98255786 28.74502068 -17.84373493 27.37138553 -12 24 C-12.30679688 23.38640625 -12.61359375 22.7728125 -12.9296875 22.140625 C-15.42380164 17.15239671 -17.09735802 12.66414091 -16 7 C-14.28671617 3.89424644 -11.9382572 1.71933052 -9.125 -0.4375 C-5.87952565 -1.29659615 -3.23863996 -0.71969777 0 0 Z " fill="#351B2B" transform="translate(244,252)"/>
<path d="M0 0 C1.8871875 0.433125 1.8871875 0.433125 3.8125 0.875 C12.73026076 2.83453587 21.18312369 4.30132397 30.33666992 4.22705078 C31.78748459 4.22748886 31.78748459 4.22748886 33.26760864 4.22793579 C36.42199094 4.22655735 39.57612841 4.21106703 42.73046875 4.1953125 C44.93435029 4.19157707 47.13823351 4.18873261 49.34211731 4.18673706 C55.11077552 4.1791423 60.8793312 4.15952994 66.64794922 4.1373291 C72.54718642 4.11678065 78.44644037 4.10771618 84.34570312 4.09765625 C95.89718018 4.07627978 107.44858153 4.0421946 119 4 C119 4.99 119 5.98 119 7 C99.97931857 7.92806755 80.99420382 8.1880556 61.95532227 8.18530273 C58.05862624 8.18520002 54.16210794 8.19901977 50.26545429 8.21607494 C47.19812739 8.22729173 44.13084284 8.22921925 41.06349754 8.22869301 C39.62731484 8.22985212 38.19113024 8.23415312 36.75496864 8.24202538 C10.41627838 8.3733153 10.41627838 8.3733153 -1 2 C-0.67 1.34 -0.34 0.68 0 0 Z " fill="#251626" transform="translate(7,472)"/>
<path d="M0 0 C0.66 0 1.32 0 2 0 C2.24234375 0.73605469 2.4846875 1.47210938 2.734375 2.23046875 C6.00622561 11.80255839 6.00622561 11.80255839 13.5625 18.109375 C18.18506839 20.36253673 22.18232704 20.50253774 27.25 20.3125 C28.03890625 20.30283203 28.8278125 20.29316406 29.640625 20.28320312 C33.26784554 20.21274192 36.49043952 19.97449646 40 19 C39.505 18.01 39.505 18.01 39 17 C38.87854007 15.16962713 38.82456815 13.33435867 38.8125 11.5 C38.79832031 10.5203125 38.78414062 9.540625 38.76953125 8.53125 C39 6 39 6 41 4 C43.5 3.6875 43.5 3.6875 46 4 C48.19398856 7.29098284 48.21503664 7.84832581 47.75 11.5625 C47.66234375 12.34753906 47.5746875 13.13257813 47.484375 13.94140625 C47 16 47 16 45 18 C45.08719324 21.92369576 45.71280099 23.65695674 48.25 26.6875 C52.90783154 30.60431289 56.17503013 32.35027638 62.3125 32.6875 C63.91544922 32.78611328 63.91544922 32.78611328 65.55078125 32.88671875 C66.35902344 32.92410156 67.16726562 32.96148437 68 33 C68 33.33 68 33.66 68 34 C65.36 34 62.72 34 60 34 C60 34.66 60 35.32 60 36 C53.3471975 34.71612583 47.72356974 32.87245019 43.67578125 27.1171875 C42.71389069 25.44991054 41.84723644 23.72836233 41 22 C40.18015625 22.32097656 39.3603125 22.64195312 38.515625 22.97265625 C30.45212364 25.32899054 20.07245571 25.50792518 12.3125 22 C6.42344581 18.46857398 1.76312839 12.69988788 0 6 C-0.125 2.6875 -0.125 2.6875 0 0 Z " fill="#361B2C" transform="translate(152,248)"/>
<path d="M0 0 C11.47349891 -0.28329627 22.86562236 0.19602746 34.3125 0.9375 C35.34481247 1.00284943 35.34481247 1.00284943 36.39797974 1.06951904 C48.51366015 1.84489084 48.51366015 1.84489084 54 3 C55.37504695 3.16599315 56.75302013 3.30935108 58.1328125 3.4296875 C59.32293945 3.5371228 59.32293945 3.5371228 60.53710938 3.64672852 C61.39111328 3.72205811 62.24511719 3.7973877 63.125 3.875 C71.92675908 4.68298632 80.71464557 5.59240356 89.5 6.5625 C91.24434326 6.75271729 91.24434326 6.75271729 93.02392578 6.94677734 C94.11946777 7.06875488 95.21500977 7.19073242 96.34375 7.31640625 C97.80071289 7.47798218 97.80071289 7.47798218 99.28710938 7.64282227 C101.8899842 7.98551538 104.43301953 8.4531444 107 9 C107 9.99 107 10.98 107 12 C101.3257114 12.13403831 96.14222607 11.65256185 90.5625 10.6875 C75.80388936 8.31390632 60.88797938 7.23266408 46 6 C44.77748535 5.89800293 43.5549707 5.79600586 42.29541016 5.69091797 C28.2071064 4.52755517 14.12332487 3.6057408 0 3 C0 2.01 0 1.02 0 0 Z " fill="#361F26" transform="translate(385,468)"/>
<path d="M0 0 C4.43024874 0.87022743 5.91370196 2.00398461 8.5 5.6875 C9.12601538 9.65226406 9.15946039 11.68512021 6.9375 15.0625 C3.67160572 17.23976285 1.42016134 17.6875 -2.5 17.6875 C-6.28644566 15.71196313 -7.27321363 14.3678591 -8.625 10.3125 C-8.5 6.6875 -8.5 6.6875 -6.5 3.25 C-3.5 0.6875 -3.5 0.6875 0 0 Z " fill="#3E2C30" transform="translate(474.5,146.3125)"/>
<path d="M0 0 C4.4297642 0.79102932 5.89210172 1.98974785 8.5 5.625 C9.20338515 9.37638748 8.76523868 11.09452264 7.0625 14.5 C3.80981455 17.19734891 1.76679951 17.35478547 -2.37109375 17.109375 C-4.5 16.625 -4.5 16.625 -7.0625 14.5 C-8.76523868 11.09452264 -9.20338515 9.37638748 -8.5 5.625 C-5.89210172 1.98974785 -4.4297642 0.79102932 0 0 Z " fill="#33232C" transform="translate(416.5,132.375)"/>
<path d="M0 0 C3.53013221 1.41551793 4.81048562 2.84097364 6.55078125 6.19140625 C6.99897217 7.04605469 7.44716309 7.90070313 7.90893555 8.78125 C8.60369995 10.15796875 8.60369995 10.15796875 9.3125 11.5625 C9.79307861 12.49964844 10.27365723 13.43679687 10.76879883 14.40234375 C13.77618443 20.3496238 16.60984139 26.35401292 19.1875 32.5 C19.47858643 33.18650635 19.76967285 33.8730127 20.06958008 34.58032227 C21.51000926 38.15611276 22.43999483 41.1338159 22 45 C21.67 45.33 21.34 45.66 21 46 C11.30138046 45.4804311 1.20265392 43.06755131 -8 40 C-7.67 39.01 -7.34 38.02 -7 37 C-5.87722656 37.26554687 -4.75445312 37.53109375 -3.59765625 37.8046875 C3.92542756 39.58114608 11.44745196 41.35217134 19 43 C14.58510414 30.07240438 8.66380934 16.93530569 1.34228516 5.38476562 C0 3 0 3 0 0 Z " fill="#372430" transform="translate(239,132)"/>
<path d="M0 0 C2.5 1.5 2.5 1.5 4 4 C4.791013 8.02098277 4.62153384 10.96411027 2.5 14.5 C-1.02640809 16.61584485 -3.98821239 16.80730018 -8 16 C-11.01793753 13.98804165 -11.81108043 12.51119412 -13.0625 9.125 C-12.99144948 5.57247416 -12.10912752 3.73594541 -9.6640625 1.140625 C-6.37803469 -1.11176965 -3.87245818 -0.6146759 0 0 Z " fill="#ECBD77" transform="translate(447,139)"/>
<path d="M0 0 C0.99 0 1.98 0 3 0 C3.03738281 1.12535156 3.07476562 2.25070313 3.11328125 3.41015625 C3.52324648 13.5626286 4.67828463 23.09985522 7 33 C12.41974338 32.13642265 14.85406723 28.19141153 18 24 C20.06446432 20.76432409 21.92131133 17.43593565 23.75 14.0625 C24.67379376 12.36124344 25.60570535 10.66436204 26.546875 8.97265625 C26.94745117 8.23281494 27.34802734 7.49297363 27.76074219 6.73071289 C29 5 29 5 32 4 C31.41020593 8.427609 29.65761788 11.88113536 27.4375 15.6875 C27.08324951 16.29964355 26.72899902 16.91178711 26.36401367 17.54248047 C21.97654995 24.95013826 17.0653783 31.93704776 10 37 C7.375 37.1875 7.375 37.1875 5 36 C-1.3087022 25.25184069 -0.23781341 12.00957721 0 0 Z " fill="#381C2C" transform="translate(223,189)"/>
<path d="M0 0 C-2.48488487 2.48488487 -3.33492932 2.28874531 -6.77148438 2.41064453 C-7.76853394 2.45053497 -8.7655835 2.49042542 -9.79284668 2.53152466 C-10.88214478 2.56494965 -11.97144287 2.59837463 -13.09375 2.6328125 C-14.79488953 2.69515579 -14.79488953 2.69515579 -16.53039551 2.75875854 C-18.9514202 2.84550745 -21.37261677 2.92756326 -23.79394531 3.00537109 C-27.40215649 3.12184168 -31.00958438 3.25286423 -34.6171875 3.38671875 C-50.4155554 3.94792083 -66.19254311 4.11346616 -82 4 C-82 3.34 -82 2.68 -82 2 C-54.6409028 0.26657333 -27.41084669 -0.26138121 0 0 Z " fill="#291826" transform="translate(157,495)"/>
<path d="M0 0 C1 1 1 1 1.3125 4.0625 C0.84268888 9.98212012 -1.75393061 14.13089592 -5 19 C-8.16115776 17.63016497 -8.9927092 17.0109362 -11 14 C-11.60162311 10.91089671 -11.62175981 8.08717265 -11 5 C-8.30793913 1.0834566 -4.76888664 -0.81752342 0 0 Z " fill="#E25167" transform="translate(242,254)"/>
<path d="M0 0 C1.8871875 0.433125 1.8871875 0.433125 3.8125 0.875 C5.54103113 1.25291864 7.27023505 1.62776946 9 2 C9.79396683 2.17582611 10.58793365 2.35165222 11.40596008 2.5328064 C19.09161709 4.09497536 26.59163312 4.34329791 34.41796875 4.4140625 C35.76989357 4.43282189 37.12180728 4.45239864 38.47370911 4.4727478 C41.99326957 4.52357231 45.5128678 4.56346004 49.03259277 4.60089111 C52.63965814 4.6412466 56.24657326 4.69219317 59.85351562 4.7421875 C66.90223313 4.83835642 73.95104546 4.92294547 81 5 C81 5.33 81 5.66 81 6 C66.15 6 51.3 6 36 6 C36 6.66 36 7.32 36 8 C23.34828018 8.38403197 10.30588921 8.31168883 -1 2 C-0.67 1.34 -0.34 0.68 0 0 Z " fill="#573128" transform="translate(7,472)"/>
<path d="M0 0 C0.99 0.33 1.98 0.66 3 1 C3.80924105 3.60623221 4.44715827 6.08886353 5 8.75 C6.05369807 13.71488244 7.0540689 17.7484858 10 22 C13.88878952 17.26582146 14.13983319 13.28809736 14.5625 7.25 C14.64628906 6.07953125 14.73007813 4.9090625 14.81640625 3.703125 C14.87699219 2.81109375 14.93757812 1.9190625 15 1 C15.99 0.67 16.98 0.34 18 0 C18.48490202 7.95598501 17.41067904 15.39198542 15 23 C13 25 13 25 10.6875 25.625 C7.48137831 24.87939031 7.15106471 24.28641418 5.375 21.625 C1.53971232 14.78923489 -0.51109379 7.83677138 0 0 Z " fill="#311F2C" transform="translate(194,121)"/>
<path d="M0 0 C3 1 3 1 4.46484375 3.6953125 C4.95082031 4.82710938 5.43679688 5.95890625 5.9375 7.125 C9.0869001 14.26833198 9.0869001 14.26833198 13 21 C13.99 21.33 14.98 21.66 16 22 C17.32 14.74 18.64 7.48 20 0 C20.66 0 21.32 0 22 0 C22.41779469 7.99999471 22.43506927 17.01863066 17.70703125 23.875 C16 25 16 25 13.5 24.92578125 C8.08728661 22.92138582 5.84598321 16.79162413 3.5078125 11.83984375 C0 3.68467514 0 3.68467514 0 0 Z " fill="#362430" transform="translate(256,121)"/>
<path d="M0 0 C4.5565527 3.71274665 6.57400393 8.79007402 9 14 C7.71632558 15.83893824 6.42283239 17.67102625 5.125 19.5 C4.40570313 20.5209375 3.68640625 21.541875 2.9453125 22.59375 C2.30335938 23.3878125 1.66140625 24.181875 1 25 C0.34 25 -0.32 25 -1 25 C-1.02718316 22.14576808 -1.04692705 19.29179985 -1.0625 16.4375 C-1.07087891 15.63763672 -1.07925781 14.83777344 -1.08789062 14.01367188 C-1.10742247 9.22836896 -0.80437018 4.71854949 0 0 Z " fill="#757B92" transform="translate(393,345)"/>
<path d="M0 0 C0.66 0 1.32 0 2 0 C2.24234375 0.73605469 2.4846875 1.47210938 2.734375 2.23046875 C5.9958446 11.76792201 5.9958446 11.76792201 13.484375 18.11328125 C18.47476118 20.54906498 23.04305007 20.45622195 28.5 20.25 C29.4178125 20.23195313 30.335625 20.21390625 31.28125 20.1953125 C33.52196092 20.14863102 35.76039799 20.08318522 38 20 C37 23 37 23 35 24 C25.37599074 24.73868492 15.92200752 25.37438129 8 19 C3.48464782 14.30479103 0.12514669 9.31638726 -0.125 2.6875 C-0.08375 1.800625 -0.0425 0.91375 0 0 Z " fill="#351B2B" transform="translate(152,248)"/>
<path d="M0 0 C0.61741425 8.02638522 0.61741425 8.02638522 -1.625 11.5625 C-4.65221885 13.39476404 -6.51857596 13.45409879 -10 13 C-12 11 -12 11 -12.5 8.1875 C-11.95649869 4.72267912 -11.66514798 4.31874611 -9.125 2.1875 C-4.2 -1.26 -4.2 -1.26 0 0 Z " fill="#E05167" transform="translate(269,18)"/>
<path d="M0 0 C11.30825541 0.37564651 21.96863966 1.41299957 33 4 C33 4.99 33 5.98 33 7 C32.27635254 6.91435791 31.55270508 6.82871582 30.80712891 6.74047852 C16.54728495 5.06677199 2.351382 3.54403932 -12 3 C-12 2.67 -12 2.34 -12 2 C-8.04 2 -4.08 2 0 2 C0 1.34 0 0.68 0 0 Z " fill="#372026" transform="translate(459,495)"/>
<path d="M0 0 C1.8125 1.125 1.8125 1.125 3 3 C3.39769128 6.18153026 3.55198782 8.12844028 1.8125 10.875 C-0.65507108 12.40659584 -2.14519831 12.42822025 -5 12 C-6.8125 10.875 -6.8125 10.875 -8 9 C-8.39769128 5.81846974 -8.55198782 3.87155972 -6.8125 1.125 C-4.34492892 -0.40659584 -2.85480169 -0.42822025 0 0 Z " fill="#F1C179" transform="translate(419,135)"/>
<path d="M0 0 C3.5 0.25 3.5 0.25 5.5 2.25 C5.75 5.75 5.75 5.75 5.5 9.25 C3.5 11.25 3.5 11.25 0.5625 11.5625 C-2.5 11.25 -2.5 11.25 -4.375 10.125 C-6.00531294 7.40781176 -5.83015665 5.35347254 -5.5 2.25 C-3.5 0.25 -3.5 0.25 0 0 Z " fill="#F1C179" transform="translate(474.5,149.75)"/>
<path d="M0 0 C2.5 1.5 2.5 1.5 4 4 C4.791013 8.02098277 4.62153384 10.96411027 2.5 14.5 C-1.02640809 16.61584485 -3.98821239 16.80730018 -8 16 C-11.01793753 13.98804165 -11.81108043 12.51119412 -13.0625 9.125 C-12.99144948 5.57247416 -12.10912752 3.73594541 -9.6640625 1.140625 C-6.37803469 -1.11176965 -3.87245818 -0.6146759 0 0 Z M-8.25 3.125 C-10.28308178 4.9464041 -10.28308178 4.9464041 -10.4375 8 C-10.18981333 10.92138639 -10.18981333 10.92138639 -8.9375 12.9375 C-5.78433176 14.66665678 -3.37491745 13.8590699 0 13 C2.32038095 10.17431454 2.32038095 10.17431454 1.8125 6.9375 C1.26245502 3.70259047 1.26245502 3.70259047 -2 2 C-5.82297795 1.7018576 -5.82297795 1.7018576 -8.25 3.125 Z " fill="#31222B" transform="translate(447,139)"/>
<path d="M0 0 C4.52838096 3.49863954 8.03294171 6.44595307 10 12 C10.1875 15.375 10.1875 15.375 10 18 C8.68 18.33 7.36 18.66 6 19 C1.29705945 12.25911855 -0.27481709 8.10710425 0 0 Z " fill="#DA4F65" transform="translate(156,30)"/>
<path d="M0 0 C3.14803691 1.13679111 6.18874979 2.45848549 9.25 3.8125 C8.59 5.1325 7.93 6.4525 7.25 7.8125 C6.59 7.8125 5.93 7.8125 5.25 7.8125 C5.25 8.4725 5.25 9.1325 5.25 9.8125 C5.91 10.1425 6.57 10.4725 7.25 10.8125 C3.20853394 11.12947773 0.87235307 11.17002198 -2.6875 9.125 C-4.75 6.8125 -4.75 6.8125 -5.25 4.1875 C-4.61281963 1.16089323 -3.2826642 -0.35171402 0 0 Z " fill="#381C2C" transform="translate(313.75,196.1875)"/>
<path d="M0 0 C2.45406605 4.34860504 2.68413063 8.09569003 2 13 C0.95644249 15.7708251 -0.22266143 17.56250711 -2 20 C-2.99 20.33 -3.98 20.66 -5 21 C-6 20 -6 20 -6.4375 16.6875 C-6.42618508 10.47560977 -2.9569101 5.28019661 0 0 Z " fill="#DF5166" transform="translate(195,17)"/>
<path d="M0 0 C3.3125 -0.25 3.3125 -0.25 7 0 C9.92946962 2.63652265 10.4329776 5.19941742 11 9 C11.11495913 11.93900189 11.09454394 14.87185217 11.0625 17.8125 C11.05798828 18.60076172 11.05347656 19.38902344 11.04882812 20.20117188 C11.03711312 22.13414761 11.01917998 24.06708393 11 26 C10.01 26.33 9.02 26.66 8 27 C7.98018066 26.41508789 7.96036133 25.83017578 7.93994141 25.22753906 C7.84446519 22.56791975 7.73487858 19.90906162 7.625 17.25 C7.5940625 16.32960938 7.563125 15.40921875 7.53125 14.4609375 C7.49257813 13.57148438 7.45390625 12.68203125 7.4140625 11.765625 C7.3826416 10.94868164 7.3512207 10.13173828 7.31884766 9.29003906 C6.97656307 6.83167042 6.2260723 5.14240001 5 3 C2.69 3.33 0.38 3.66 -2 4 C-1.34 2.68 -0.68 1.36 0 0 Z " fill="#36232F" transform="translate(415,249)"/>
<path d="M0 0 C0 0.99 0 1.98 0 3 C-17.325 3.495 -17.325 3.495 -35 4 C-35 3.34 -35 2.68 -35 2 C-35.99 1.67 -36.98 1.34 -38 1 C-10.83596307 -0.19388403 -10.83596307 -0.19388403 0 0 Z " fill="#2B1926" transform="translate(126,476)"/>
<path d="M0 0 C1.09957031 0.27714844 2.19914063 0.55429688 3.33203125 0.83984375 C11.54667033 2.86723118 19.50935841 4.63323362 28 5 C28.33 4.34 28.66 3.68 29 3 C29.042721 4.66611905 29.04063832 6.33382885 29 8 C28.67 8.33 28.34 8.66 28 9 C18.30138046 8.4804311 8.20265392 6.06755131 -1 3 C-0.67 2.01 -0.34 1.02 0 0 Z " fill="#372430" transform="translate(232,169)"/>
<path d="M0 0 C6.22222222 -0.35897436 6.22222222 -0.35897436 9.4375 1.125 C11 3 11 3 11.4375 6.0625 C11.293125 7.031875 11.14875 8.00125 11 9 C8 11 8 11 5.5 11.0625 C3 10 3 10 1.1875 6.625 C0 3 0 3 0 0 Z " fill="#DE5066" transform="translate(130,59)"/>
<path d="M0 0 C2.875 0.375 2.875 0.375 4.875 2.375 C4.625 4.9375 4.625 4.9375 3.875 7.375 C1.23041621 8.69729189 -0.80261301 8.47177194 -3.75 8.4375 C-4.75289062 8.42847656 -5.75578125 8.41945312 -6.7890625 8.41015625 C-7.55992187 8.39855469 -8.33078125 8.38695312 -9.125 8.375 C-6.96302887 3.86141116 -5.30096675 0.63611601 0 0 Z " fill="#DF5166" transform="translate(155.125,205.625)"/>
<path d="M0 0 C1.875 0.6875 1.875 0.6875 2.875 1.6875 C3.11380597 9.20988806 3.11380597 9.20988806 1.875 11.6875 C-1.96780285 10.44118556 -4.19819896 9.32701308 -6.125 5.6875 C-6 3.5625 -6 3.5625 -5.125 1.6875 C-2.125 -0.3125 -2.125 -0.3125 0 0 Z " fill="#DF5066" transform="translate(317.125,227.3125)"/>
<path d="M0 0 C1.2375 0.1546875 1.2375 0.1546875 2.5 0.3125 C4.73551759 3.66577639 4.67283528 4.21993657 4.125 8 C3.95871094 9.21236328 3.95871094 9.21236328 3.7890625 10.44921875 C3.69367188 11.06410156 3.59828125 11.67898438 3.5 12.3125 C2.84 11.9825 2.18 11.6525 1.5 11.3125 C0.51 11.6425 -0.48 11.9725 -1.5 12.3125 C-2.18025637 10.31708132 -2.84490497 8.31632009 -3.5 6.3125 C-3.7475 5.57 -3.995 4.8275 -4.25 4.0625 C-4.3325 3.485 -4.415 2.9075 -4.5 2.3125 C-2.5 0.3125 -2.5 0.3125 0 0 Z " fill="#3D1D2E" transform="translate(195.5,251.6875)"/>
<path d="M0 0 C2.5 0.1875 2.5 0.1875 5 1 C7.56687367 4.8503105 6.83288724 6.58569763 6 11 C3.3364031 10.64005447 1.41816548 10.28838998 -0.8125 8.75 C-2.42982809 6.36656913 -2.36169769 4.82124201 -2 2 C-1.34 1.34 -0.68 0.68 0 0 Z " fill="#DE5066" transform="translate(280,249)"/>
<path d="M0 0 C2.375 -0.125 2.375 -0.125 5 0 C7 2 7 2 7.046875 3.875 C6.94890625 4.57625 6.8509375 5.2775 6.75 6 C6.61851562 7.051875 6.61851562 7.051875 6.484375 8.125 C6 10 6 10 4 12 C3.01 12 2.02 12 1 12 C0.01 12.33 -0.98 12.66 -2 13 C-1.5317879 8.22423661 -0.75668002 4.95523655 2 1 C1.34 0.67 0.68 0.34 0 0 Z " fill="#401E2F" transform="translate(156,230)"/>
<path d="M0 0 C10.75316545 -0.86101859 10.75316545 -0.86101859 14.625 2.375 C18.28029322 6.41506092 18.09970168 8.61610944 18 14 C17.01 14 16.02 14 15 14 C14.79503906 13.36191406 14.59007812 12.72382813 14.37890625 12.06640625 C14.10949219 11.24011719 13.84007812 10.41382813 13.5625 9.5625 C13.29566406 8.73878906 13.02882812 7.91507813 12.75390625 7.06640625 C12.17844506 5.03780412 12.17844506 5.03780412 11 4 C9.15108054 3.76636119 7.29511969 3.58696365 5.4375 3.4375 C4.42558594 3.35371094 3.41367188 3.26992187 2.37109375 3.18359375 C1.19740234 3.09271484 1.19740234 3.09271484 0 3 C0 2.01 0 1.02 0 0 Z " fill="#3D2933" transform="translate(116,153)"/>
<path d="M0 0 C4.875 0.875 4.875 0.875 6 2 C5.875 5.375 5.875 5.375 5 9 C2.4375 10.9375 2.4375 10.9375 0 12 C0 11.34 0 10.68 0 10 C-0.99 9.67 -1.98 9.34 -3 9 C-2.5020163 5.26512223 -2.12508244 3.18762365 0 0 Z " fill="#31192A" transform="translate(149,180)"/>
<path d="M0 0 C19.00455581 -0.18451025 19.00455581 -0.18451025 27 1 C26.67 1.66 26.34 2.32 26 3 C17.42 3 8.84 3 0 3 C0 2.01 0 1.02 0 0 Z " fill="#261626" transform="translate(385,468)"/>
<path d="M0 0 C0.886875 0.12375 1.77375 0.2475 2.6875 0.375 C2.6875 1.035 2.6875 1.695 2.6875 2.375 C1.90375 2.66375 1.12 2.9525 0.3125 3.25 C-2.40921632 4.22412254 -2.40921632 4.22412254 -4.3125 6.375 C-4.55610073 9.50314514 -4.55610073 9.50314514 -4.4375 13 C-4.41945313 14.18851563 -4.40140625 15.37703125 -4.3828125 16.6015625 C-4.35960937 17.51679688 -4.33640625 18.43203125 -4.3125 19.375 C-5.3025 19.045 -6.2925 18.715 -7.3125 18.375 C-8.91781546 14.72655577 -8.96955968 10.27255854 -8.3125 6.375 C-6.41532478 2.49887477 -4.42586643 0.50104148 0 0 Z " fill="#3C2833" transform="translate(329.3125,130.625)"/>
<path d="M0 0 C1.52657227 0.08507812 1.52657227 0.08507812 3.08398438 0.171875 C5.57763537 0.31236238 8.07012555 0.46366682 10.5625 0.625 C10.5625 0.955 10.5625 1.285 10.5625 1.625 C7.5925 1.625 4.6225 1.625 1.5625 1.625 C1.5625 2.285 1.5625 2.945 1.5625 3.625 C-5.17983419 3.75410853 -11.74136804 3.422837 -18.4375 2.625 C-18.4375 2.295 -18.4375 1.965 -18.4375 1.625 C-12.16064277 -0.68150294 -6.61481773 -0.43037201 0 0 Z " fill="#4E2D27" transform="translate(423.4375,469.375)"/>
<path d="M0 0 C0.66 0.33 1.32 0.66 2 1 C3.4556539 5.94922324 3.63107728 11.10676817 2 16 C1.01 15.67 0.02 15.34 -1 15 C-2.16297973 12.67404054 -2.16600691 11.21276769 -2.1875 8.625 C-2.20167969 7.85414062 -2.21585938 7.08328125 -2.23046875 6.2890625 C-1.97801607 3.78165112 -1.25193467 2.16738098 0 0 Z " fill="#D84E64" transform="translate(233,18)"/>
<path d="M0 0 C1.8871875 0.433125 1.8871875 0.433125 3.8125 0.875 C9.18101507 2.07180272 14.58344556 3.04830632 20 4 C20 4.99 20 5.98 20 7 C12.172478 6.73510924 5.92271421 5.75854433 -1 2 C-0.67 1.34 -0.34 0.68 0 0 Z " fill="#392126" transform="translate(7,472)"/>
<path d="M0 0 C5.61 0.66 11.22 1.32 17 2 C17 2.99 17 3.98 17 5 C10.4294834 5.24794402 4.43028541 4.32388229 -2 3 C-1.34 2.67 -0.68 2.34 0 2 C0 1.34 0 0.68 0 0 Z " fill="#422627" transform="translate(475,475)"/>
<path d="M0 0 C5.94 0.33 11.88 0.66 18 1 C18 1.33 18 1.66 18 2 C16.35 2 14.7 2 13 2 C13 2.66 13 3.32 13 4 C4.75 3.67 -3.5 3.34 -12 3 C-12 2.67 -12 2.34 -12 2 C-8.04 2 -4.08 2 0 2 C0 1.34 0 0.68 0 0 Z " fill="#492A27" transform="translate(459,495)"/>
<path d="M0 0 C1.45823212 -0.0270043 2.91660675 -0.04639787 4.375 -0.0625 C5.18710937 -0.07410156 5.99921875 -0.08570313 6.8359375 -0.09765625 C9 0 9 0 11 1 C10.34 2.32 9.68 3.64 9 5 C5.625 5.125 5.625 5.125 2 5 C1.34 4.34 0.68 3.68 0 3 C0 2.01 0 1.02 0 0 Z " fill="#E05167" transform="translate(312,199)"/>
<path d="M0 0 C3.65316671 1.24976756 4.78065836 1.67098753 7 5 C7.1953125 7.26171875 7.1953125 7.26171875 7.125 9.6875 C7.10695313 10.49574219 7.08890625 11.30398438 7.0703125 12.13671875 C7.03550781 13.05904297 7.03550781 13.05904297 7 14 C6.01 14 5.02 14 4 14 C4.04125 12.906875 4.0825 11.81375 4.125 10.6875 C4.32074666 6.91107771 4.32074666 6.91107771 2 4 C1.01 3.67 0.02 3.34 -1 3 C-0.67 2.01 -0.34 1.02 0 0 Z " fill="#2E1929" transform="translate(282,246)"/>
<path d="M0 0 C1.50433594 0.01353516 1.50433594 0.01353516 3.0390625 0.02734375 C3.80992188 0.03894531 4.58078125 0.05054688 5.375 0.0625 C5.045 1.0525 4.715 2.0425 4.375 3.0625 C-2.06 3.5575 -2.06 3.5575 -8.625 4.0625 C-8.295 3.0725 -7.965 2.0825 -7.625 1.0625 C-4.98041621 -0.25979189 -2.94738699 -0.03427194 0 0 Z " fill="#402B35" transform="translate(94.625,450.9375)"/>
<path d="M0 0 C0.99 0.33 1.98 0.66 3 1 C3.66 4.96 4.32 8.92 5 13 C4.01 13.33 3.02 13.66 2 14 C0.4087311 9.126739 -0.21192221 5.19209404 0 0 Z " fill="#412C36" transform="translate(194,121)"/>
<path d="M0 0 C3.96 0 7.92 0 12 0 C11.67 0.99 11.34 1.98 11 3 C5.06 3.495 5.06 3.495 -1 4 C-0.67 2.68 -0.34 1.36 0 0 Z " fill="#432E37" transform="translate(98,460)"/>
<path d="M0 0 C0.99 0 1.98 0 3 0 C3 4.29 3 8.58 3 13 C2.01 13 1.02 13 0 13 C0 8.71 0 4.42 0 0 Z " fill="#3F2B35" transform="translate(427,333)"/>
<path d="M0 0 C0.66 0 1.32 0 2 0 C2 4.62 2 9.24 2 14 C1.34 14 0.68 14 0 14 C-1.31164842 11.37670316 -1.13262846 9.36301375 -1.125 6.4375 C-1.12757813 5.44621094 -1.13015625 4.45492188 -1.1328125 3.43359375 C-1 1 -1 1 0 0 Z " fill="#3C2833" transform="translate(427,309)"/>
<path d="M0 0 C0.99 0 1.98 0 3 0 C2.52651586 4.1666604 1.95303159 6.92884715 -1 10 C-1.66 10 -2.32 10 -3 10 C-2.25 3.375 -2.25 3.375 0 0 Z " fill="#DA4F65" transform="translate(157,233)"/>
<path d="M0 0 C0.66 0 1.32 0 2 0 C2 4.29 2 8.58 2 13 C1.01 12.67 0.02 12.34 -1 12 C-1.02687279 10.18757948 -1.04633715 8.37504767 -1.0625 6.5625 C-1.07410156 5.55316406 -1.08570313 4.54382813 -1.09765625 3.50390625 C-1 1 -1 1 0 0 Z " fill="#362430" transform="translate(418,360)"/>
<path d="M0 0 C0.66 0 1.32 0 2 0 C2 4.29 2 8.58 2 13 C1.01 12.67 0.02 12.34 -1 12 C-1.02687279 10.18757948 -1.04633715 8.37504767 -1.0625 6.5625 C-1.07410156 5.55316406 -1.08570313 4.54382813 -1.09765625 3.50390625 C-1 1 -1 1 0 0 Z " fill="#412C36" transform="translate(428,353)"/>
<path d="M0 0 C0.99 0.33 1.98 0.66 3 1 C3.33 2.98 3.66 4.96 4 7 C6.97 7.495 6.97 7.495 10 8 C10.33 8.99 10.66 9.98 11 11 C6.87203885 10.7618484 4.65367367 10.60339108 1.5625 7.75 C-0.10291199 4.8188749 -0.37775893 3.3053906 0 0 Z " fill="#473434" transform="translate(466,153)"/>
<path d="M0 0 C4.62 0 9.24 0 14 0 C13.67 0.99 13.34 1.98 13 3 C8.71 2.67 4.42 2.34 0 2 C0 1.34 0 0.68 0 0 Z " fill="#331D26" transform="translate(425,471)"/>
<path d="M0 0 C5.94 0 11.88 0 18 0 C18 0.33 18 0.66 18 1 C14.7 1 11.4 1 8 1 C8 1.66 8 2.32 8 3 C5.36 3 2.72 3 0 3 C0 2.01 0 1.02 0 0 Z " fill="#452827" transform="translate(385,468)"/>
<path d="M0 0 C0.66 0 1.32 0 2 0 C2 4.29 2 8.58 2 13 C1.34 13 0.68 13 0 13 C-1.57170996 9.85658007 -1.23175783 6.44228549 -1 3 C-0.67 2.01 -0.34 1.02 0 0 Z " fill="#3D2933" transform="translate(418,320)"/>
<path d="M0 0 C1.50433594 0.01353516 1.50433594 0.01353516 3.0390625 0.02734375 C3.80992188 0.03894531 4.58078125 0.05054688 5.375 0.0625 C5.375 0.7225 5.375 1.3825 5.375 2.0625 C1.085 2.7225 -3.205 3.3825 -7.625 4.0625 C-7.625 3.0725 -7.625 2.0825 -7.625 1.0625 C-4.98041621 -0.25979189 -2.94738699 -0.03427194 0 0 Z " fill="#32202D" transform="translate(109.625,450.9375)"/>
<path d="M0 0 C0.33 0 0.66 0 1 0 C1.35555556 5.33333333 1.35555556 5.33333333 0 7.875 C-3.25313684 9.70488947 -6.31390109 9.18128355 -10 9 C-9.67 8.34 -9.34 7.68 -9 7 C-8.05125 6.731875 -7.1025 6.46375 -6.125 6.1875 C-2.40459812 4.77374729 -1.73536538 3.47073076 0 0 Z " fill="#32232C" transform="translate(423,140)"/>
<path d="M0 0 C3.3 0.66 6.6 1.32 10 2 C9.01 2.495 9.01 2.495 8 3 C8 3.66 8 4.32 8 5 C3.545 4.01 3.545 4.01 -1 3 C-0.67 2.01 -0.34 1.02 0 0 Z " fill="#463038" transform="translate(232,169)"/>
<path d="M0 0 C0.66 0 1.32 0 2 0 C2.33 4.29 2.66 8.58 3 13 C2.01 13 1.02 13 0 13 C0 8.71 0 4.42 0 0 Z " fill="#2C1C2A" transform="translate(418,340)"/>
<path d="M0 0 C0.99 0 1.98 0 3 0 C2.67 1.65 2.34 3.3 2 5 C0.35 5.33 -1.3 5.66 -3 6 C-2.42655063 3.13275314 -2.1385485 2.1385485 0 0 Z " fill="#DD5065" transform="translate(149,183)"/>
<path d="M0 0 C0 0.66 0 1.32 0 2 C-0.7425 2.28875 -1.485 2.5775 -2.25 2.875 C-4.56739797 3.82302644 -6.77917115 4.84845911 -9 6 C-9 3 -9 3 -7.875 1.3125 C-5.23540902 -0.53521368 -3.14195927 -0.20946395 0 0 Z " fill="#32212D" transform="translate(332,131)"/>
<path d="M0 0 C3.875 1.75 3.875 1.75 5 4 C5.039992 5.99960012 5.04346799 8.00047242 5 10 C4.01 9.67 3.02 9.34 2 9 C0.68964993 5.82757352 0 3.44118336 0 0 Z " fill="#463333" transform="translate(420,134)"/>
<path d="M0 0 C4.29 0 8.58 0 13 0 C13 0.99 13 1.98 13 3 C10.69 3 8.38 3 6 3 C6 2.67 6 2.34 6 2 C3.03 1.505 3.03 1.505 0 1 C0 0.67 0 0.34 0 0 Z " fill="#3D2326" transform="translate(113,476)"/>
<path d="M0 0 C0.99 0.33 1.98 0.66 3 1 C4.4158649 3.91038896 5.29922267 6.846502 6 10 C3.54896452 9.01958581 2.23241214 8.3486182 0.75 6.125 C0 4 0 4 0 0 Z " fill="#422F32" transform="translate(434,145)"/>
<path d="M0 0 C0.66 0 1.32 0 2 0 C2 3.3 2 6.6 2 10 C1.01 9.34 0.02 8.68 -1 8 C-1.25 4.4375 -1.25 4.4375 -1 1 C-0.67 0.67 -0.34 0.34 0 0 Z " fill="#432E37" transform="translate(210,121)"/>
<path d="M0 0 C0.66 0 1.32 0 2 0 C2 2.97 2 5.94 2 9 C1.01 9.33 0.02 9.66 -1 10 C-0.67 6.7 -0.34 3.4 0 0 Z " fill="#2D1C2A" transform="translate(276,121)"/>
<path d="M0 0 C0.99 0.33 1.98 0.66 3 1 C2.74438677 3.3431213 2.40729228 5.67843403 2 8 C1.01 8.495 1.01 8.495 0 9 C0 6.03 0 3.06 0 0 Z " fill="#DC5065" transform="translate(194,255)"/>
<path d="M0 0 C1.98 0.495 1.98 0.495 4 1 C4.33 2.32 4.66 3.64 5 5 C3.35 4.67 1.7 4.34 0 4 C0 2.68 0 1.36 0 0 Z " fill="#D14C62" transform="translate(309,173)"/>
<path d="M0 0 C0.33 0 0.66 0 1 0 C2.31626692 3.61973402 3 6.09567131 3 10 C1.68 9.01 0.36 8.02 -1 7 C-0.67 4.69 -0.34 2.38 0 0 Z " fill="#483535" transform="translate(410,139)"/>
<path d="M0 0 C2.64 0 5.28 0 8 0 C8 0.99 8 1.98 8 3 C5.36 2.67 2.72 2.34 0 2 C0 1.34 0 0.68 0 0 Z " fill="#2D1A26" transform="translate(19,476)"/>
<path d="M0 0 C2.31 0.33 4.62 0.66 7 1 C6.01 1.495 6.01 1.495 5 2 C5 2.66 5 3.32 5 4 C2.03 3.505 2.03 3.505 -1 3 C-0.67 2.01 -0.34 1.02 0 0 Z " fill="#462827" transform="translate(14,474)"/>
<path d="M0 0 C0.33 0 0.66 0 1 0 C1.042721 1.66611905 1.04063832 3.33382885 1 5 C0 6 0 6 -3.0625 6.0625 C-4.5165625 6.0315625 -4.5165625 6.0315625 -6 6 C-4.71034824 4.62437146 -3.37310707 3.29233607 -2 2 C-1.34 2 -0.68 2 0 2 C0 1.34 0 0.68 0 0 Z " fill="#442F37" transform="translate(260,172)"/>
<path d="M0 0 C0.33 0.66 0.66 1.32 1 2 C-0.1875 3.5 -0.1875 3.5 -2 5 C-4.6875 5.1875 -4.6875 5.1875 -7 5 C-2.25 1.125 -2.25 1.125 0 0 Z " fill="#2E1F2A" transform="translate(481,158)"/>
<path d="M0 0 C-1.37154504 2.95409701 -2.98863724 5.44008376 -5 8 C-5.36625971 3.48279689 -5.36625971 3.48279689 -3.625 1.1875 C-2 0 -2 0 0 0 Z " fill="#291B28" transform="translate(440,140)"/>
</svg>
